<?xml version="1.0" encoding="UTF-8"?>
<svg id="Laag_2" data-name="Laag 2" xmlns="http://www.w3.org/2000/svg" viewBox="0 0 2394.92 1011.3">
  <defs>
    <style>
      .cls-1 {
        fill: #80b4e2;
      }

      .cls-1, .cls-2, .cls-3, .cls-4, .cls-5, .cls-6, .cls-7, .cls-8 {
        stroke-width: 0px;
      }

      .cls-2 {
        fill: #f8fbfd;
      }

      .cls-3 {
        fill: #fdfefe;
      }

      .cls-4 {
        fill: #fafcfd;
      }

      .cls-5 {
        fill: #f29121;
      }

      .cls-6 {
        fill: #fcfdfe;
      }

      .cls-7 {
        fill: #8b74b3;
      }

      .cls-8 {
        fill: #79bb54;
      }
    </style>
  </defs>
  <g id="Laag_1-2" data-name="Laag 1">
    <g>
      <path class="cls-3" d="M381.85,254.93c-6.65,8.33-6.26,18.12-8,26.95-5.23,26.53-10.11,53.16-13.73,79.95-2.43,17.99-3.42,36.2-6.27,54.18-.89,5.61-2.64,10.92-4.87,16.07-9.97,23.05-39.98,19.39-49.48,4.16-2.7-4.33-5.58-9.04-6.49-13.93-5.19-28.02-13.68-55.27-18.38-83.44-2.52-15.09-7.42-29.86-10.38-44.98-.35-1.81-.79-3.72-1.7-5.28-.62-1.07-2.09-2.18-3.26-2.28-2.09-.18-3.19,1.38-3.6,3.44-1.85,9.15-3.89,18.26-5.62,27.44-7.45,39.47-16.17,78.62-26.89,117.37-4.49,16.21-8.61,32.46-14.55,48.21-5.46,14.51-17.83,22.96-31.03,20.93-14.37-2.21-24.58-13.62-25.7-29.08-1.14-15.67,3.89-30.51,6.79-45.59,12.7-66.21,32.73-130.45,52.38-194.81,4.49-14.71,7.14-29.98,11.01-44.9,2.81-10.83,5.93-21.6,9.45-32.22,3.99-12.04,15.84-20.98,26.86-21.01,14.16-.04,23.02,6.24,27.89,21.01,7.3,22.16,12.41,44.88,17.09,67.74,3.45,16.85,8.02,33.46,12,49.8,2.71.2,4.2-.32,4.45-1.77,4.66-27.21,13.1-53.49,19.77-80.2,12.02-48.09,26.84-95.37,40.34-143.03,1.92-6.77,4.18-13.4,7.61-19.6,6.43-11.61,16.39-16.38,29.31-14.79,11.6,1.43,17.97,9.62,21.61,19.55,4.81,13.09,2.96,26.89,1.36,40.3-.72,6.05-1.5,12.03-1.51,18.11-.03,27.65-1.46,55.4.27,82.94,4.06,64.59-.03,129.28,3.12,193.77,1.74,35.58,1.04,71.1,2.27,106.62.13,3.71.41,7.53,1.37,11.09,2.58,9.57,1.08,18.72-2.94,27.37-5.03,10.81-12.28,18.44-25.89,17.4-11.2-.85-21.25-7.22-25.67-18.22-1.93-4.8-3.13-9.76-2.9-15.06.24-5.61-.06-11.25.11-16.87,1.19-37.46-2.3-74.83-3.72-112.18-1.06-28.05-.9-56.09-1.9-84.12-.29-8.02.72-15.84,2.39-23.65.47-2.19.34-4.66-2.97-7.38Z"/>
      <path class="cls-3" d="M715.36,356.69c-3.4,1.13-4.06,2.41-3.98,3.79.87,16.43-3.75,32.5-3.2,48.89.32,9.47-2.06,18.61-3.75,27.71-2.32,12.5-17.31,22.89-29.11,21.91-12.67-1.05-25.84-14.03-25.48-27.49.61-22.83,2.66-45.62,4.17-68.43.15-2.32,1.11-4.64.98-6.92-1.18-21.1,3.44-41.87,3.39-62.97-.03-14.81,2.97-29.63,4.53-44.45,1.52-14.38.12-28.91,3.29-43.28,3.21-14.54,4.86-29.42,10.74-43.3,7.25-17.12,19.09-24.4,37.24-23.3,11.61.7,19.49,7.27,24.13,16.77,3.61,7.38,5.67,15.62,6.61,24.21,2.74,25,6.02,49.97,10,74.8,1.45,9.01-1.19,18.92,5.68,27.9,4.43-17.11,4.59-34.09,7-50.71,4.08-28.14,7.12-56.45,16.89-83.47,3.55-9.82,9.88-17.31,18.39-22.27,16.73-9.76,38.27,2.6,40.19,22.51,1.27,13.22-1.45,26.01-4.46,38.8-8.35,35.44-13.51,71.42-18.14,107.51-3.2,24.95-7.67,49.75-10.25,74.75-1.34,12.97-3.42,25.86-3.99,38.99-.68,15.76-1.48,31.68-5.12,47.2-.53,2.27-1.07,4.56-1.88,6.73-4.62,12.4-12.81,21.4-26.59,21.42-12.47.02-22.32-6.6-28.16-17.87-6.28-12.1-10.21-25.12-13.26-38.35-5.42-23.54-10.55-47.15-15.87-71.06Z"/>
      <path class="cls-3" d="M1728.78,831.6c.87,10.23,1.19,20.44,2.12,30.69,1.69,18.48-6.82,31.12-25.12,35.01-22.36,4.74-36.91-5.93-37.94-30.51-.8-19.14-2.72-38.1-5.35-57.04-1.54-11.08.39-22.33-2.63-33.48-2-7.39-6.19-10.22-12.8-10.35-8.45-.16-16.68-1.43-25.01-2.73-12.04-1.88-13.75.03-18.45,11.62-15.08,37.2-26.95,75.73-45.86,111.33-6.34,11.94-12.34,24.28-23.14,33.07-8.61,7.01-17.78,12.28-29.44,6.59-7.28-3.56-11.5-8.52-12.15-17.17-1.37-18.31,3.77-35.35,10.05-51.89,18.06-47.55,36.2-95.1,55.74-142.06,12.18-29.29,24.3-58.72,39.78-86.55,4.98-8.96,10.01-18.04,13.6-27.59,4.63-12.29,12.71-21.63,21.94-30.35,18.35-17.35,50.13-12.08,62.67,10.08,9.21,16.27,12.37,34.36,14.97,52.23,4.83,33.19,6.68,66.74,9.48,100.18,2.09,25.01,3.51,50.18,7.34,75.08,1.2,7.77.19,15.89.19,23.85ZM1650.89,664.59c-8.77,11.29-12.94,23.14-18.53,34.17-2.09,4.12-.65,7.38,4.39,7.87,3.24.31,6.53.02,9.78.25,7.38.53,9.8-3.13,9.68-10.1-.17-10.24,0-20.44-5.32-32.19Z"/>
      <path class="cls-3" d="M2147.82,588.53c7.07.05,13.99.37,20.77,2.87,6.1,2.26,10.34,6.21,12.95,12.02,7.25,16.1.71,30.26-17.08,36.29-16.43,5.57-33.85,6.63-50.61,10.68-20.43,4.93-41.13,8.27-61.92,10.98-8.28,1.08-12.33,4.89-13.83,13.04-1.95,10.54-5.03,20.87-7.28,31.36-2.01,9.4-.86,11.62,8.58,14.08,17.15,4.48,34.43,8.47,51.69,12.52,12.32,2.9,24.44,6.51,35.86,11.92,13.03,6.17,18.5,28.6,9.44,39.82-8.68,10.76-19.74,16.46-34.41,13.62-10.49-2.03-21.23-2.92-31.9-3.93-13.63-1.29-25.69-8.65-39.34-9.79-3.23-.27-6.42-1.22-9.65-1.42-4.25-.26-7.53,1.45-7.63,6.19-.34,16.57-6.92,31.86-9.74,47.93-.96,5.45-.32,9.11,4.01,12.12,23.78,16.54,48.27,31.93,74.35,44.64,14.81,7.22,29.05,15.14,39.88,27.96,10.29,12.17,13.24,29.37,3.76,41.17-8.59,10.69-22.94,14.81-35.05,8.19-30.67-16.78-62.37-31.63-91.6-51.16-12.69-8.48-26.22-16.07-40.12-22.85-23.9-11.66-30.66-25.23-26.52-50.99,6.52-40.53,13.41-80.98,24.6-120.57,9.4-33.27,17.97-66.78,28.7-99.66,5.06-15.51,9.35-17.61,24.88-19.93,40.99-6.12,82.8-5.74,123.27-15.9,4.47-1.12,9.29-.84,13.95-1.21Z"/>
      <path class="cls-3" d="M939.24,848.82c-.74-14,3.38-25.62,5.37-37.56,6.03-36.18,18.14-70.59,30.18-105.02,5.71-16.33,11.63-32.69,14.78-49.66,4.04-21.76,18.05-32.94,37.6-39.18,27.63-8.81,55.48-16.98,82.87-26.46,8.27-2.86,16.84-5.8,24.55-10.02,16.83-9.21,34.85-9.82,53.19-9.02,20.43.88,30.68,17.6,22.28,36.26-3.58,7.96-9.11,14.47-17.21,17.74-29.02,11.72-57.52,24.77-87.7,33.53-8.92,2.59-17.23,7.24-25.92,10.69-5.2,2.06-10.54,4.81-15.93,5.12-9.85.56-14.04,5.96-16.22,14.52-1.73,6.79-3.77,13.51-5.78,20.23-1.66,5.54.64,8.03,6.06,8.12,7.96.13,15.97.67,23.89.08,11.18-.83,21.2,3,31.41,6.36,6.51,2.14,9.56,6.91,10.43,13.59,2.73,20.87-8.05,34.54-32.43,38.27-17.93,2.74-35.7,7.72-54.14,6.18-7.45-.62-11.43,3.12-12.65,10.14-1.67,9.63-3.25,19.28-4.76,28.94-1.04,6.64,3.06,9.36,8.64,10.51,8.68,1.8,17.36,3.85,26.14,4.94,22.4,2.78,43.1,12.06,65.06,16.53,6.8,1.38,13.59,3.1,20.14,5.91,18.95,8.14,23.38,17.35,17.56,37.68-3.69,12.9-13.24,20.81-27.13,19.58-9.62-.85-19.45-1.9-29.13-3.42-13.05-2.05-24.94-7.94-37.91-10.01-16.57-2.64-33.19-5.11-49.62-8.46-12.7-2.59-25.28-5.64-37.4-10.87-9.53-4.11-16.17-10.95-22.91-18.06-5.17-5.45-2.81-12.44-3.3-17.17Z"/>
      <path class="cls-3" d="M1749.12,677.99c0-19.2.25-38.4-.11-57.59-.17-9.11,2.77-16.34,9.35-22.48,20.45-19.08,43.35-32.18,72.46-31.64,14.6.27,27.46,5.23,39.16,13.2,14.77,10.06,27.01,22.84,37.83,37.12,17.23,22.74,22.31,48.88,17.42,75.77-4.32,23.79-12.76,46.91-31.22,64.6-11.81,11.32-22.84,23.47-36.15,33.12-7.99,5.8-16.35,11.09-26.44,12.09-7.19.71-9.78,4.66-9.5,11.22.49,11.65.59,23.33,1.06,34.96.55,13.69,1.05,28.11-3.76,41.36-4.64,12.8-14.59,20.45-28.31,21.86-11.47,1.18-24.44-7.92-29.35-20.12-1.9-4.72-3.95-9.57-3.88-14.85.14-10.31-2.3-20.56-2.31-30.62-.03-23.88-2.93-47.55-3.96-71.34-1.39-32.24-2.05-64.44-2.3-96.67ZM1822.06,678.81h-.08c0,13.09-.08,26.18.05,39.27.04,4.01-1.27,9.01,4.11,10.74,4.83,1.55,8.95-.3,12.77-3.71,6.7-5.98,12.09-13.08,17.03-20.38,12.01-17.77,11.21-39.53-2.51-54.29-5.94-6.38-13.6-11.31-20.95-16.18-7.29-4.83-10.09-3.34-10.32,5.27-.35,13.08-.09,26.18-.09,39.27Z"/>
      <path class="cls-3" d="M1383.13,608.46c.92,13.61-7.02,22.19-17.64,28-21.13,11.56-39.08,27.11-56.8,43.03-5.85,5.25-6.15,11.88-.4,18.49,4.9,5.64,10.47,10.7,15.72,16.05,7.53,7.68,14.84,15.79,20.07,25.07,12.13,21.53,10.75,43.52.98,65.91-9.53,21.85-25.98,38.54-40.06,57.02-3.76,4.93-9.32,7.76-14.11,11.46-12.19,9.41-24.12,19.23-36.86,27.83-11.36,7.67-23.76,13.04-38.17,7.76-14.58-5.33-23.43-16.42-23.23-31.53.19-13.98,8.12-23.67,20.16-29.64,25.99-12.89,47.68-30.8,64.93-54.05,6.81-9.17,5.89-16.24-1.96-24.91-6.98-7.71-15.4-13.65-23.79-19.53-7.39-5.18-13.58-11.54-19.42-18.17-12.17-13.84-12.36-35.09-2.75-52.38,22.79-41.02,56.7-70.25,97.2-92.27,10.29-5.59,21.25-12.02,34.54-7.32,13.7,4.85,21.62,14.8,21.6,29.19Z"/>
      <path class="cls-7" d="M656.49,737.97c-.03-5.68,1.04-11.22,2.89-16.51,1.9-5.42,6.37-7.84,11.96-8.24,7.59-.55,7.14-4.84,3.96-9.46-6.97-10.1-10.08-22.19-16.77-32.3-4.14-6.26-1.58-9.59,3.19-12.58,10.7-6.7,21.31-13.61,32.46-19.48,25.22-13.28,51.17-25.14,75.75-39.67,9.71-5.74,12.21-4.89,17.16,5.58,4,8.44,7.07,17.32,10.9,25.85,4.07,9.07,6.26,9.47,14.14,3.42,12.14-9.32,29.01-7.74,37.44,3.51,7.54,10.05,4.14,29.71-6.7,38.1-1.82,1.41-3.95,2.57-6.11,3.38-5.87,2.2-6.22,5.91-3.9,11.09,4.25,9.47,10.72,17.54,16.18,26.24,7.11,11.34,6.88,13.24-4.7,19.26-13.69,7.12-27.57,13.89-41.45,20.65-7.47,3.64-9.4,3.06-12.74-4.85-2.38-5.64-4.78-11.21-8.44-16.09-5.6-7.47-10.44-6.74-13.95,2.12-3.7,9.34-1.78,18.28,2.15,27.16,5.57,12.59,5.51,12.92-7.2,18.57-8.96,3.98-18.28,7.15-27.37,10.84-6.5,2.63-10.85.23-13.9-5.49-3.96-7.43-8.01-14.82-11.7-22.39-2.32-4.76-4.17-7.91-10.37-4.2-7.12,4.27-15.52,3.25-23.36,2.46-11.49-1.16-19.35-12.56-19.51-26.98Z"/>
      <path class="cls-8" d="M2279.29,871.41c-5.59-19.41-5.55-19.33,13.21-30.02,7.32-4.17,14.99-7.61,22.42-11.49,7.2-3.76,11.52-1.5,15.33,4.25,3.62,5.46,7.01,11.06,10.46,16.63,3.66,5.91,7.63,7.85,15.08,4.92,19.71-7.76,32.44.24,36.17,21.3,2.04,11.49,2.46,22.45-7.24,31.15-3.74,3.36-3.69,7.32-1.48,11.44,3.09,5.78,6.56,11.38,9.34,17.3,4.4,9.36,2.73,14.78-6.12,19.94-11.32,6.6-22.69,13.14-34.29,19.22-12.65,6.63-17.18,4.97-25.2-6.82-3.09-4.54-5.38-13.63-12.67-9.45-5.45,3.12-1.07,10.15,1.28,15.2,5.84,12.56,3.97,18.26-8.19,24.9-5.33,2.92-10.54,6.1-16.03,8.69-9.98,4.7-15.12,3.47-22.11-4.87-3-3.58-5.92-7.27-8.62-11.08-5.45-7.67-10.95-12.66-21.79-8.12-7.83,3.29-15.65-.78-21.46-7.02-8.57-9.2-16.09-27.98-3.63-42.18,7.28-8.3,6.88-15,.76-23.26-3-4.05-4.88-9.08-6.54-13.92-3.11-9.07-.31-16.3,8.79-19.11,10.51-3.25,19.37-9.25,28.79-14.35,13.93-7.54,15.74-7.25,24.58,5.75,1.55,2.29,2.74,5.02,6.18,4.89.83,1.06,2.09,1.6,3.03.66,1.33-1.34.84-3.04-.06-4.56Z"/>
      <path class="cls-5" d="M34.4,138.89c-8.14-4.86-16.91-9.96-25.54-15.28-9.99-6.16-10.83-8.37-6-19.4,3.55-8.12,7.45-16.16,11.97-23.78,6.28-10.58,8.11-10.7,18.84-4.76,3.65,2.02,7.44,4.1,11.42,5.16,4.05,1.07,8.78,1.02,11.61-2.74,3.06-4.07.45-8.2-1.83-11.62-3.44-5.16-8.67-8.32-14.06-11.33-8.86-4.96-9.4-6.52-4.68-15.29,5.75-10.69,11.76-21.26,18.04-31.65,5.83-9.64,8.53-10.27,17.86-4.6,11.2,6.81,23,12.41,34.8,18.07,27.06,13,50.98,31.28,77,46.05,7.87,4.47,8.6,8.05,4,16.21-5.96,10.59-12.27,21-18.68,31.32-5.15,8.3-7.64,9.04-15.54,3.45-4.88-3.46-9.63-5.58-15.55-4.75-3.75.53-7.89,1-9.07,5.29-1.33,4.84-.17,9.34,4.39,12.26,2.36,1.51,4.98,2.61,7.33,4.12,6.68,4.31,7.99,8.43,3.43,15.09-6.59,9.64-13.76,18.86-19.04,29.37-2.22,4.42-6.32,5.29-10.82,3.39-6.91-2.91-13.61-6.14-19.38-11.14-3.16-2.74-6.5-5.45-10.17-7.38-8.02-4.23-9.9-3.28-11.76,5.88-1.05,5.17-3.06,9.84-5.78,14.2-8.4,13.43-24.95,18.43-39.16,11.37-7.82-3.88-10.41-11.67-11.35-19.77-1.35-11.6,3.52-20.9,11.6-28.86,2.25-2.21,5.62-3.61,6.09-8.9Z"/>
      <path class="cls-3" d="M1375.01,791.88c.58-23.46,6.27-44.56,12.98-65.43,12.99-40.41,40.09-70.19,73.03-95.21,12.13-9.21,26.53-13.57,41.88-14.16,12.7-.49,19.61,6.83,24.18,17.69,4.32,10.26,2.59,19.17-4.98,27.08-2.91,3.04-5.72,6.31-9.09,8.76-14.31,10.4-23.42,24.71-32.5,39.57-9.81,16.05-18.2,32.56-24.31,50.25-8.22,23.79-9.2,48.47-8.16,73.32.24,5.73,4.83,8.85,8.3,12.57,9.22,9.9,16.14,20.69,13.93,35.13-.21,1.38-.1,2.82-.36,4.19-3.64,18.71-17.8,25.97-35.63,17.92-24.61-11.1-42.46-28.28-49.98-55.16-5.31-18.98-8.18-38.23-9.28-56.52Z"/>
      <path class="cls-1" d="M1111.9,379.41c-3.04-10.68-7.05-20.14-12.07-29.1-3.61-6.44-1.76-10.77,4.19-13.77,14.18-7.14,28.41-14.26,43.57-19.12,7.79-2.5,9.14-1.5,11.9,7.04,1.87,5.76,2.45,11.94,5.85,17.18,1.5,2.31,2.75,5.33,6.33,3.71,2.97-1.35,3.83-4.2,2.96-7.09-1.48-4.91-2.98-9.91-5.28-14.46-3.08-6.09-1.55-10.5,3.07-14.96,4.82-4.66,10.33-8.02,16.38-10.63,6.44-2.78,12.87-5.56,19.38-8.17,11.9-4.77,15.51-3.49,21,7.98,4.84,10.12,10.15,20.14,13.73,30.72,8.72,25.77,22.85,49.04,33.23,74.02,4.53,10.9,4.33,14.77-5.11,17.87-25.59,8.39-47.94,23.18-71.81,34.94-9.61,4.74-19.61,8.58-28.59,14.76-8.45,5.82-12.53,4.11-17.65-5.3-5.14-9.45-9.35-19.35-15.09-28.52-3.76-6.02-7.4-9.48-14.55-5.54-1.61.89-3.51,1.29-5.32,1.77-15.98,4.2-30.31-5.37-32.47-21.65-2.56-19.34,1.49-24.41,26.33-31.65Z"/>
      <path class="cls-6" d="M865.52,419.28c6.5-29.49.94-59.66,5.66-89.36,1.82-11.43.7-23.37.54-35.07-.18-12.72,2.72-24.96,4.77-37.38,1.79-10.86,8.5-17.23,17.08-22.61,6.89-4.32,13.5-3.49,19.55,1.29,8.86,7,14.41,16.07,14.27,27.65-.15,12.11,1.31,24.29-2.07,36.31-1.11,3.94-.54,8.37-.55,12.58-.05,40.74-.09,81.48-.06,122.22,0,9.08-1.42,17.46-7.49,24.86-16.2,19.74-41.54,9.06-47.89-9.93-3.3-9.86-3.82-20.16-3.81-30.57Z"/>
      <path class="cls-6" d="M573.11,393.74c0,17.33-.45,34.68.16,51.99.38,10.92-2.04,21.39-3.43,31.99-1.5,11.37-14.84,22.93-25.13,23.41-10.19.48-21.41-8.86-25.47-20.7-1.56-4.56-2.03-9.12-1.86-13.81.71-19.59-.01-39.12,2.09-58.8,2.38-22.24,1.19-44.92.63-67.39-.33-13.21,1.95-26.07,3.21-39.05.99-10.14,7.98-16.37,17.05-20.64,10.89-5.12,23.8,7.24,27.34,18.15,3.75,11.53,5,23.75,5.29,35.84.48,19.66.13,39.35.13,59.02Z"/>
      <path class="cls-2" d="M964.03,163.27c-.27,14.68-16.61,31.27-30.74,31.19-14.49-.08-28.16-14.67-27.79-29.66.37-15.05,14.92-28.62,30.68-28.6,16.09.01,28.12,11.72,27.84,27.07Z"/>
      <path class="cls-4" d="M560.32,186.18c-11.85-.28-25.69-14.65-25.03-25.96.86-14.61,11.87-24.36,27.25-24.15,13.11.18,25.09,13.75,24.07,27.25-.85,11.24-14.53,23.14-26.3,22.85Z"/>
    </g>
  </g>
</svg>