<?xml version="1.0" encoding="UTF-8"?>
<svg id="Laag_2" data-name="Laag 2" xmlns="http://www.w3.org/2000/svg" viewBox="0 0 3633.03 3584.18">
  <defs>
    <style>
      .cls-1 {
        fill: #e9f3fb;
      }

      .cls-1, .cls-2, .cls-3, .cls-4, .cls-5, .cls-6, .cls-7, .cls-8, .cls-9, .cls-10, .cls-11, .cls-12 {
        stroke-width: 0px;
      }

      .cls-2 {
        fill: #b4d6f3;
      }

      .cls-3 {
        fill: #fefeff;
      }

      .cls-4 {
        fill: #bdd7f2;
      }

      .cls-5 {
        fill: #a2cdef;
      }

      .cls-6 {
        fill: #a8d0f0;
      }

      .cls-7 {
        fill: #fcfdfe;
      }

      .cls-8 {
        fill: #9fcbee;
      }

      .cls-9 {
        fill: #a0ccee;
      }

      .cls-10 {
        fill: #fdfeff;
      }

      .cls-11 {
        fill: #f9fbfe;
      }

      .cls-12 {
        fill: #fcfdff;
      }
    </style>
  </defs>
  <g id="Laag_1-2" data-name="Laag 1">
    <g>
      <path class="cls-3" d="M2671.79,3477.42c-10.13-6.11-17.64-10.86-25.36-15.23-8.23-4.66-13.98-11.45-17.23-20.1-2.87-7.66-9.32-15.87-2.36-23.82,7.29-8.32,17.77-11.19,28.62-10.1,5.31.53,10.94,2.5,15.49,5.33,21.22,13.21,42.7,26.12,62.94,40.73,16.83,12.15,14.75,31.21,10.85,48.19-4.92,21.41-13.04,42.05-24,61.32-1.96,3.44-4.22,6.82-6.89,9.73-8.44,9.22-18.1,14.37-30.59,7.64-12.43-6.7-13.37-17.86-10.95-29.84,3.74-18.49,3.85-18.86-14.8-14.91-61.63,13.05-124.21,14.56-186.52,11.18-125.98-6.84-247.36-33.53-359.23-94.65-73.74-40.29-139.92-89.31-182.11-164.6-20.78-37.09-32.65-77.28-38.71-119.1-1.85-12.73-4.23-19.25-19.45-22.1-100.24-18.78-172.2-78.23-224.97-162.78-31.75-50.87-47.15-107.25-53.79-166.84-9.79-87.89,9.18-170.85,38.66-252.36,42.4-117.23,111.37-218.56,188.76-314.92,39.07-48.65,76.86-98.32,115.82-147.06,13.7-17.15,29.56-32.55,43.68-49.38,27.64-32.96,37.96-73.07,46.1-114.09,16.26-81.96,18.18-165.02,14.24-247.82-3.27-68.7-17.01-136.15-58.49-194.03-30.85-43.05-74.01-65.92-125.86-73.47-8.99-1.31-10.18,2.64-7.82,10.38,8.9,29.16,17.34,58.46,22.74,88.51,11.73,65.27,18.09,130.72,1.43,196.11-16.79,65.89-71.19,101.92-127.81,100.39-63.74-1.73-119.03-27.1-157.41-79.95-37.99-52.32-36.34-109.51-11.95-166.77,21.16-49.68,50.53-94.17,89.98-131.59,27.85-26.41,58.17-49.13,95.23-60.71,10.04-3.14,9.72-6.38,5.82-14.35-24.56-50.18-57.71-94.66-91.41-138.76-26.38-34.51-55.08-67.38-73.83-107.14-8.71-18.47-9.6-37.46-4.45-57.02,2.73-10.37,8.33-12.88,17.63-7.3,11.41,6.84,21.52,15.4,26.5,27.76,17.51,43.46,48.72,77.58,76.24,114.27,38.39,51.18,77.52,101.97,102.49,161.63,3.88,9.28,10.26,10.19,18.9,10.79,66.28,4.61,125.15,26.79,169.96,77.62,38.64,43.83,58.95,96.86,71.52,153.29,8.71,39.11,15.96,79.03,13.86,118.58-2.5,46.93,1.24,93.91-4.34,140.78-5.84,49.15-12.61,97.85-27.32,145.34-11.91,38.47-32.16,71.98-58.22,101.82-45.34,51.93-87.92,106.1-131.35,159.56-48.85,60.14-95.47,121.95-133.67,189.67-47.09,83.48-83.73,171.21-93.42,267.1-8.92,88.23,2.56,173.77,55.38,249.16,40.56,57.89,92.33,100.73,161.75,119.39,25.17,6.76,24.47,6.17,28.96-19.43,12-68.4,40.62-129.23,84.84-182.83,43.6-52.86,98.19-87.77,165.87-99.95,38.85-7,76.93-3.74,110.65,19.9,28.68,20.1,47.7,64.49,35.93,113.1-16.42,67.83-57.79,116.6-115.48,152.44-65.99,40.99-138.31,64.38-215.53,72.7-15.59,1.68-17.18,4.78-14.76,20.55,13.58,88.47,63.55,152.69,134.96,202.31,90.41,62.82,191.08,98.68,299.73,114.39,59.17,8.55,118.51,10.46,177.89,7.85,38.17-1.67,76.65-4.67,116.66-16.51ZM1830.72,1637.07c-.68-64.93-12.39-126.47-31.16-186.9-8.03-25.85-11.59-27.82-36.6-16.4-.91.42-1.8.89-2.7,1.31-38.07,17.97-67.09,46.96-92.63,79.17-25.3,31.9-45.25,67.21-54.88,107.37-11.63,48.51,5.35,90.05,46.25,118.42,24.18,16.77,50.64,24.71,79.49,28.12,25.62,3.02,60.31-12.74,72.92-35.2,17.08-30.4,18.62-63.76,19.32-95.88ZM2176.21,2838.83c-35.54.77-66.38,10.18-94.59,27.28-74.48,45.16-115.15,114.46-136.38,196.41-9.68,37.35-8.15,37.75,30.46,32.44.99-.14,2.01-.03,2.99-.21,66.11-11.89,128.46-33.46,183.53-72.95,37.75-27.08,66.19-61.92,75.02-108.19,7.4-38.76,2.46-61.2-41.01-72.79-7.11-1.9-14.83-1.52-20.03-1.99Z"/>
      <path class="cls-8" d="M1715.68,749.24c1.45-49.54,18.57-86.39,58.5-109.14,19.85-11.31,41.37-10.6,60.11,5.34,9.69,8.25,15.52,11.69,26.47-2.3,11.79-15.06,26.26-32.11,50.33-30.35,7.8.57,14.86,1.82,20.82,6.96,8.69,7.5,17.69,9.63,28.84,4.69,11.55-5.12,23.9-7.03,36.37-2.23,9.93,3.81,11.96-1.49,9.7-9.44-5.2-18.27-.98-35.89,4.24-52.94,6.86-22.41,29.69-32.39,51.55-24.16,3.74,1.41,7.27,3.45,11.07,4.61,25.51,7.82,35.7,19.97,35.63,47.54-.03,13.6,4.1,16.96,16.05,12.41,6.28-2.39,12.74-2.42,19.24-2.24,5.91.16,9.93-1.86,13.91-6.79,17.71-21.91,41.71-24.27,62.58-5.37,7.32,6.63,10.07,6.43,15.93-1.19,15.86-20.59,42.35-23.18,61.96-5.69,8.82,7.87,11.71,5.84,17.63-3.08,8.32-12.56,14.56-27.24,30.46-33.75,14.13-5.79,27.16-6.87,39.35,3.24,9.27,7.68,17.07,7.83,28.1,1.47,20-11.52,42.37-17.09,65.7-18.04,12.05-.49,24,2.37,32.32,9.91,11.12,10.07,18.76,6.72,27.89-1.35,19.81-17.51,44.01-24.84,69.42-29.11,10.7-1.8,20.79,2.01,30.97,4.11,5.96,1.23,9.82,1.01,14.43-3.92,16.54-17.71,33.94-21.34,54.91-10.38,7.97,4.17,10.8,1.78,15.9-3.65,12.33-13.12,25.66-24.71,44.18-29.41,15.39-3.91,28.05-.27,38.23,10.48,8.31,8.76,16.44,9.35,26.92,5.43,13.46-5.03,27.37-6.22,32.94-24.77,3.82-12.72,16.98-22.43,33.41-20.38,9.07,1.13,17.29-4.44,26.65-2.14,24.01,5.91,39.03,24.2,40.49,51.04,1.48,27.31,13.4,49.6,35.57,64.53,38.64,26.03,23.57,63.64-3.99,83.66-12.28,8.92-33.17,5.61-48.14-8.69-9.85-9.42-15.02-7.2-24.51.75-35.36,29.62-93.21,47.61-136.7,15.96-6.92-5.03-9.86-2.37-11.35,4.62-1.93,9.04-6.01,16.85-12.51,23.46-17.34,17.62-42.05,18.42-60.37,1.88-14.99-13.53-14.85-13.39-29.61.9-22.32,21.6-47.94,35.94-80.17,34.3-16.25-.82-31.28-6.12-45.06-14.61-8.54-5.26-14.32-5.31-23.35,1.98-32.98,26.62-80.47,38.34-119.9,14.45-9.24-5.6-14.15-3.55-20.27,3.24-15.36,17.05-32.25,31.24-57.07,32.11-5.08.18-9.8-.54-14.69-.89-7.12-.52-13.32.25-19.31,5.62-31.02,27.81-63.64,28.98-97.86,3.98-4.83-3.53-9.01-9.38-14.86-2.03-22.83,28.63-53.12,28.5-84.63,21.23-9.36-2.16-13.93-.96-16.54,8.42-4.96,17.85-18.92,26-35.63,27.31-14.44,1.14-26.94-6.08-36.15-17.77-1.85-2.35-3.59-4.84-4.98-7.48-5.39-10.19-10.53-11.12-16.31-.19-5.43,10.27-14.3,16.41-25.37,19.5-4.48,1.25-7.61,3.97-10.81,7.44-17.37,18.86-37.12,23.38-61.08,12.95-9.48-4.12-15.73-3.38-24.28,2.95-30.25,22.42-64.42,28.25-99.08,13.38-39.85-17.09-51.57-52.73-54.19-88.38ZM2903.29,523.29c-2.57,22.2-6.02,42.36-17.94,59.81-4.73,6.93-11.46,12.7-20.17,7.14-8.02-5.12-7.95-13.07-3.59-21.17,5.11-9.49,11.29-16.72,22.68-19.98,14.22-4.07,16.96-18.69,6.57-27.91-6.85-6.09-15.04-5.41-22.78-3.93-26.26,5.02-51.24,44.95-44.74,71.28,5.38,21.78,18.23,36.61,41.2,40.25,23.22,3.68,38.49-8.76,51.56-26.1,5.33-7.07,6.21-20.34,14.68-20.89,7.93-.52,12.76,11.32,19.38,17.29,9.45,8.53,19.38,16.2,32.56,16.85,10.88.54,20.01-3.26,22.31-15.37,2.32-12.19-3.22-19.06-15.57-20.55-5.14-.62-9.6-3.07-13.17-6.67-20.14-20.34-35.23-43.24-37.51-72.89-.96-12.43-2.83-24.86-8.1-36.35-4.35-9.51-11.53-15.53-22.55-13.2-11.05,2.34-15.02,10.4-14.7,21.21.2,7.02.82,13.87,2.69,20.72,2.88,10.55,5.05,21.3,7.17,30.49ZM2288.47,671.28c9.54,8.97,18.01,18.17,27.7,25.83,26.47,20.9,50.4,12.68,58.23-19.97,6.2-25.81,3.55-51.62-2.37-77.15-2.59-11.19-10.13-18.75-21.52-15.79-11.27,2.93-16.09,12.16-13.55,24.66,3.29,16.17,5.42,32.54,4.02,49.14-.24,2.87.42,6.79-3.32,7.35-1.88.29-4.6-1.77-6.22-3.46-7.57-7.96-15.02-16.04-22.28-24.29-17.56-19.96-38.1-17.46-49.69,6.39-5.02,10.33-9.15,21.11-14.24,31.4-2.02,4.09-2.3,11.34-8.59,10.56-5.2-.64-6.61-7-8.61-11.49-5.07-11.42-9.64-23.06-14.87-34.4-4.58-9.92-12.92-15.08-23.18-10.75-10.04,4.23-12.77,13.45-9.04,23.94,6.7,18.86,13.84,37.55,24.41,54.65,16.61,26.88,45.96,27.76,63.28,1.32,7.59-11.58,12.96-24.61,19.84-37.94ZM1990.82,683.37c7.46,11.32,12.2,22.69,17.04,34.03,7.45,17.44,14.32,35.23,25.39,50.81,7.28,10.26,20.79,13.55,28.92,7.1,8.53-6.77,11.57-16.28,4.59-25.07-13.02-16.38-19.51-35.82-28.34-54.21-6.48-13.49-12.38-27.42-20.41-39.95-16.55-25.82-38.61-25.2-55.34.2-8.51,12.92-11.5,28.34-19.88,43.15-5.27-11.33-9.29-21.53-14.65-30.97-4.19-7.39-11.43-12.02-20.2-9.05-7.87,2.67-12.77,10.22-10.7,17.81,7.73,28.42,16.71,56.76,32.87,81.58,10.09,15.5,29.18,12.03,36.81-5.18,2.2-4.98,3.2-10.48,4.91-15.69,5.86-17.88,8.41-36.94,19.01-54.55ZM1739.79,752.8c-1.14,16.84,4.37,30.52,18.29,40.38,23.77,16.84,53.57,12.98,70.73-12.89,9.62-14.5,15.93-12.57,27.18-4.45,9.91,7.15,21.54,11,34.01,7.94,9.8-2.41,15.09-9.24,15.54-19.5.29-6.67-1.4-12.23-9.18-12.89-37.72-3.18-52.76-36.01-74.11-59.09-14.98-16.18-32.77-22.58-50.13-7.68-20.84,17.89-30.84,41.11-32.32,68.19ZM2403.77,636.02c-.13,35.12,20.4,57.85,52.49,58.12,37.29.31,64.28-25.3,65.75-59.58,1.53-35.77-35.58-64.99-62.36-65.45-33.49-.57-55.73,27.21-55.88,66.91ZM2601.41,661.15c33.33-.05,54.66-13.77,62.04-37.56,7.46-24.02-1.12-49.35-21.45-63.4-28.5-19.68-50.46-21.41-71.07-4.33-20.5,16.99-32.26,39.34-27.29,65.91,4.47,23.89,23.88,34.31,46.53,38.45,4.87.89,9.92.82,11.24.92ZM2124.14,742.11c22.58-.31,36.92-15.2,33.36-32.03-2.95-13.92-12.01-18.36-23.22-9.84-9.07,6.89-15.19,4.1-22.15-2.26-6.46-5.91-10.01-13.57-14.15-20.99-4.45-7.98-3.22-12.77,6-15.53,14.24-4.26,25.44-13.54,36.08-23.47,2.51-2.34,5.55-4.93,3.6-8.93-1.45-2.96-4.59-3.82-7.67-3.81-13.42.05-27.2-2.81-40.11,2.26-11.26,4.42-15.03.29-16.73-10.48-2.18-13.77-5.68-27.33-8.58-40.99-2.2-10.35-8.08-15.68-19.09-14.43-10.99,1.25-13.86,9.12-13.73,18.14.13,8.91,1.62,17.83,2.87,26.69,2.54,18.03,3.77,37.47,9.04,53.58,6.32,19.29,15.91,39.71,29.9,56.3,12.34,14.64,27.1,25.02,44.57,25.78ZM2721.03,564.71c-2.25-5.12-3.55-7.77-4.59-10.53-4.13-10.9-9.09-20.91-23.59-16.78-11.33,3.23-14.7,13.01-9.43,28.61,4.95,14.67,10.79,29.05,16.27,43.54,4.8,12.7,8.91,27.48,25.89,26.81,17.94-.71,18.53-16.81,21.73-29.72,7.12-28.74,16.09-55.86,47.37-68.18,8.95-3.52,11.82-12.72,8.5-21.63-3.61-9.71-12.15-13.1-22.04-10.86-10.34,2.34-19.61,7.11-27.68,14.32-13.23,11.82-23.45,25.82-32.43,44.41Z"/>
      <path class="cls-9" d="M2130.37,237.42c6.88-7.82.02-12.97-4.13-17.81-24.33-28.39-24.06-30.95-7.37-62.92,5.58-10.7,5.06-24.05,6.03-36.46,2.08-26.63,11.59-48.29,35.8-54.72,22.39-5.95,45.65,8.62,48.04,31.95.41,3.97.51,8.05.08,12-1.43,13.23,5.32,15.49,16.37,12.92,14.3-3.33,28.74-3.82,42.93.29,15.36,4.45,25.55,14.94,26.89,30.73,1.23,14.47-4.5,27.39-17.23,36.01-9.68,6.55-19.48,12.93-28.89,19.16,1.78,4.93,4.37,4.23,6.78,3.78,31.07-5.8,56.75,8.62,63.29,35.55,5.91,24.33-12.66,50.16-42.25,58.32-30.12,8.3-58.46,1.87-85.55-11.71-8.7-4.36-13.56-6.91-17.49,6.04-6.35,20.95-23.92,30.36-44.49,32.61-11.73,1.28-23.97,2.09-35.77-1.53-6.75-2.07-12.51-.79-17.8,4.44-23.88,23.66-52.06,23.24-80.57,11.72-10.65-4.3-15.91-3.63-21.53,6.01-7.49,12.84-18.69,21.55-32.44,27.71-30.44,13.64-55.4.54-79.61-15.56-25.52-16.98-37.4-43.24-46.66-71.15-1.39-4.2-.88-11.82-7.65-10.93-5.78.76-3.05,7.39-3.97,11.49-4.44,19.84,1.53,39.58.33,59.47-1.71,28.45-13.42,45.21-38.69,52.16-3.97,1.09-8,2.44-11.66.37-14.9-8.44-26.69-1.15-38.19,7.26-37.15,27.18-80.39,28.97-118.88,4.05-9.46-6.12-18.51-9.99-30.27-10.38-29.79-.99-46.37-36.02-29.29-61.24,4.37-6.46,5.39-11.93,4.17-19.4-5.26-32.17-.23-62.91,16.82-90.8,19.78-32.35,71.25-31.72,96.62.56q10.36,13.18,17.6-1.27c11.54-23.06,32.42-31.58,56.17-20.79,10.51,4.78,16.05,1.95,23.31-5.1,16.24-15.76,33.42-30.22,58.24-30,12.27.11,23.58,3.97,30.95,12.74,6.65,7.92,14.14,11.43,23.34,14.25,19.13,5.87,28.47,18.73,29.73,38.59.32,5.04-1.94,13.73,5.32,13.17,6.71-.51,3.08-9.11,3.51-14.09.9-10.34-1.05-20.73,4.07-30.85,8.17-16.15,21.89-24.1,38.6-24.03,15.44.07,28.91,7.58,36.44,22.35,6.07,11.91,11.91,23.9,23.12,33.93,4.62-7.92-.03-14.26-1.42-20.3-4.55-19.74-.68-37.26,14.48-50.55,8.88-7.78,7.11-10.59-2-15.4-21.03-11.09-21.21-31.28-19.69-51.03,1.13-14.7,10.04-24.64,24.26-29.41,19.54-6.54,42.25,1.34,52.68,18.32,11.05,17.99,8.97,39.72-6.34,54.76-9.07,8.91-10.02,14.32,2.46,21.2,17.38,9.57,21.55,28.07,25.3,45.63,1.96,9.19,5.08,14.92,15.03,15.03-1.47,5.28-2.64,10.67-4.49,15.82-2.6,7.26-3.09,16.71-13.72,17.35-10.37.62-14.95-7.24-18.57-14.96-6.16-13.12-11.78-26.51-17.16-39.97-4.09-10.23-11.59-13.61-21.54-11.11-10.51,2.65-13.03,11.97-10.56,20.26,7.81,26.26,14.81,53.15,36.6,72.6,20.4,18.2,52.41,14.39,68.9-7.45,12.63-16.73,7.67-32.93,1.59-49.69ZM1657.39,364.61c-7.41-.84-15-.93-22.2-2.67-16.99-4.1-17.35-6.1-4.93-18.82,21.15-21.68,27.38-50.38,15.69-76.96-5.81-13.21-15.02-23.72-30.56-25.85-15.97-2.18-26.29,6.31-34.88,18.57-6.16,8.79-10.28,18.4-12.45,28.67-7.19,34.04-8.43,67.96,21.85,91.96,28.12,22.29,61.54,27.23,96.35,18.09,10.46-2.75,18.72-9.6,22.55-20.33,5.12-14.35-.99-21.49-15.92-18.2-11.71,2.58-23.24,5.99-35.5,5.53ZM1892.24,336.86c18.97,1.75,32.27-9.19,42.91-22.73,9.31-11.84,15.1-13.62,26.58-1.6,17.88,18.71,47.34,21.88,65.91,9.33,9.77-6.6,15.57-16.21,10.68-28.26-5.29-13.02-15.53-7.29-24.34-4.66-17.6,5.26-28.49,1.23-37.62-14.67-5.25-9.15-9.43-18.8-10.82-29.36-.81-6.12-3.26-11.51-6.14-16.77-3.79-6.91-9.81-9.71-17.55-8.76-7.45.91-13.58,3.96-15.63,11.8-1.38,5.27-2,10.74-2.92,16.12-2.85,16.8-5.73,33.47-18.42,46.49-8.5,8.72-16.02,8.82-23.84-.64-8.89-10.76-12.34-23.77-15.78-36.8-2.99-11.33-10.06-17.9-21.78-15.31-11.18,2.47-14.52,11.75-12.77,22.17,3.51,20.96,10.67,40.63,24.45,57.16,9.42,11.3,21.5,17.75,37.08,16.5ZM2229.26,279.7c15.46-.61,27.48-3.26,32.3-16.44,4.4-12.01,2.18-23.68-7.38-33.22-5.19-5.18-10.7-6.82-14.66.5-8.4,15.53-17.02,9.22-26.04,1.05-6-5.43-10.44-11.9-14.48-18.95-6.7-11.7-10.83-21.41,7.46-26.19,5.5-1.44,10.5-5.84,15.04-9.7,5.8-4.93,16.36-9.04,12.89-17.93-3.68-9.42-13.83-4.56-21.41-3.49-30.25,4.28-30.36,4.34-31.25-26.27-.33-11.51-2.87-22.33-16.24-22.74-12.86-.39-17.53,10.09-19.01,21.25-2.62,19.78,5.3,39.68-.29,59.53-.35,1.23.25,3.31,1.18,4.21,10.17,9.96,11.18,24.38,17.77,36.03,15.05,26.61,34.66,47.56,64.14,52.36ZM1736.16,274.31c-4.66-1.31-4.41-4.86-5.68-7.41-4.44-8.96-8.6-20.62-21.23-15.81-11.85,4.51-11.76,15.66-8.39,26.84,8.86,29.39,23.67,55.98,38.51,82.53,4.98,8.91,13.97,11.28,23.49,8.71,9.55-2.58,13.07-10.5,13.28-19.54.17-7.43-.9-14.89-1.55-22.33-3.17-36.48-7.91-68.73,37.78-84.52,10.44-3.61,10.98-16.85,1.88-24.56-6.56-5.56-14.2-9.05-23.52-6.01-15.27,4.98-26.88,14.48-36.76,26.94-8.39,10.6-11.96,23.57-17.81,35.18ZM2043.56,147.46c10.2.18,17.86-2.92,17.8-14.85-.06-10.48-11.99-23.83-21.64-23.22-10.77.69-17.31,6.67-17.24,18.33.08,12.39,7.65,19.56,21.08,19.73Z"/>
      <path class="cls-8" d="M996.64,446.49c-2.9,11.17-1.44,22.52-1.32,33.63.15,13.27-2.55,25.05-8.7,37.23-6.2,12.28-13.07,24.61-16.24,38.51-4.64,20.37-20.27,31.64-37.66,40.01-25.34,12.21-51.66,20.49-80.52,20.44-26.2-.05-47.51-9.45-65.79-27.35-12.36-12.11-13.05-12.11-20.88,2.62-24.3,45.69-79.07,67.16-131.72,35.09-33.62-20.47-55.6-45.97-64.19-86.67-10.48-49.61-29.18-97.44-43.49-146.29-6.68-22.79-.8-39.92,14.84-50.82,17.43-12.15,29.55-10.27,51.87,3.53,15.35,9.48,29.2,18.91,34.17,37.42,1.59,5.9,5.74,7.16,11.74,5.01,39.79-14.27,71.84-1.7,99.24,28.34,11.51,12.62,12.35,12.07,20.28-3.5,18.19-35.71,45.51-50.3,83.92-44.55,7.3,1.09,12.64-.43,15.88-7.67,8.92-19.93,33.21-29.91,57-15.98,7.22,4.22,10.33-.36,13.69-4.29,11.74-13.74,26.47-23.08,43.46-28.17,35.7-10.7,68.71,3.75,86.98,37.7,23.26,43.21,39.66,89.48,58.84,134.49,8.03,18.84-1.2,40.76-18.67,50-18.87,9.98-40.6,3.54-55.77-14.26-17.07-20.02-29.05-42.73-39.61-66.44-1.36-3.06-1.74-6.86-7.36-8.04ZM626.73,456.06c-1.96-5.11-3.52-8.72-4.74-12.44-5.87-18.04-11.78-36.07-17.41-54.18-3.7-11.89-10.22-20.68-23.75-16.28-12.31,4-14.09,14.17-10.16,25.75,1.6,4.72,2.74,9.59,3.98,14.43,10.41,40.5,29.44,78.52,34.45,120.58.84,7.07,4.8,13.17,9.12,18.68,18,22.99,41.35,37.51,70.28,41.98,33.71,5.22,56.33-10.59,63.83-43.71,9.05-39.95-9.86-82.38-48.05-107.82-31.93-21.27-52.6-18.28-77.56,13ZM942.6,419.69c-4.98-10.55-8.67-19.18-13.05-27.45-4.83-9.13-12.99-13.2-22.58-9.26-9.52,3.91-13.16,12.32-9.43,22.3,12.23,32.74,23.61,65.84,39.39,97.14,5.35,10.62,14.7,13.24,25.31,11.31,10.58-1.93,14.46-10.35,14.81-19.92.58-15.98.19-31.99.28-47.98.09-15.63,3.03-30.85,8.59-45.35,4.76-12.41,9.63-12.9,17.33-2.26,9.43,13.03,15.8,27.73,22.24,42.39,6.42,14.62,12.09,29.73,21.74,42.62,6.69,8.94,15.47,15.69,26.85,8.3,11.37-7.38,9-18.25,3.32-27.86-9.46-16.02-15.76-33.39-23.32-50.24-8.64-19.27-19.21-37.28-35.01-51.79-19.71-18.09-43.9-14.49-58.52,7.6-9.82,14.84-13.33,31.59-17.95,50.45ZM761.04,464.33c-.22,52.44,46.53,98.99,97.6,97.16,29.24-1.05,54.69-16.81,62.56-38.76,4.19-11.7,1.02-15.93-11.43-14.68-9.59.96-18.12,5.26-26.77,9.21-18.86,8.62-37.43,8.78-55.98-1.58-10.73-5.99-10.19-9.63.21-15.87,19.98-11.99,33.69-29.67,40.01-52.25,10.11-36.1-16.46-63.29-52.73-54.4-30.66,7.52-53.33,37.69-53.47,71.16Z"/>
      <path class="cls-8" d="M974.1,793.27c9.82,1.13,16.36,7.56,21.72,14.79,6.03,8.14,9.08,6.22,13.86-1.3,18.09-28.48,43.27-46.64,78.09-43,20.64,2.16,40.47,9.52,61.19-.19,4.78-2.24,12.72-2.28,17.43,1.61,12.87,10.59,20.58,3.66,29.83-5.8,17.99-18.4,42.73-23.36,66.45-28.54,15.83-3.46,35.66,11.11,41.37,26.48,6.58,17.7-.12,38.35-17.09,51.62-10.18,7.96-20.07,16.09-29.02,25.55-17.37,18.37-23.03,40.46-22.35,64.72.48,17.08-4.48,31.48-17.92,42.51-.77.63-1.38,1.73-2.24,1.97-23.79,6.56-44.31,22.49-69.95,23.9-33.55,1.84-65.82-2.63-96.06-18.03-6.37-3.24-9.61-3.57-12.99,5.01-9.08,23.03-27.73,32.35-51.89,26.62-9.43-2.24-15.88-.74-22.86,5.98-19.57,18.8-47.56,16.14-64.21-5.31-10.77-13.88-19.97-28.69-27.22-44.72-1.38-3.05-2.63-7.41-6.84-6.9-4.64.56-3.58,5.5-4.23,8.59-2.16,10.22-3.56,20.61-5.69,30.84-4.97,23.86-22.27,41.21-42.29,42.78-21.43,1.68-41.69-12.36-49.82-35.85-20.64-59.61-32.5-121.45-45.16-183.03-3.81-18.55,7.25-39.38,22.44-47.37,14.61-7.69,33.2-4.32,48.47,8.8,9.3,8,21.59,12.69,26.61,25.46,1.61,4.1,6.5,3.91,10.68,3.09,35.11-6.89,66.53-.39,92.24,25.94,5.35,5.48,8.98,3.52,13.78-.84,6.77-6.14,11.2-16.1,22.67-15.39,7,0,14,0,21,0ZM836.03,934.85c.14-10.93-1.59-21.94,1.91-32.76,6.66-20.6,22.03-24.22,37.03-8.46,9.66,10.16,12.56,23.69,17.99,35.95,4.82,10.88,7.04,23.05,16.22,31.75,11.73,11.11,28.08,8.07,34.49-6.53,4.69-10.69-.29-43.71-10.1-47.41-14.08-5.31-16.59-17.33-22.78-27.48-21.18-34.71-56.33-42.22-90.5-18.61-7.88,5.45-7.82.37-9.03-4.8-5.21-22.37-9.79-44.89-17.1-66.73-3.7-11.05-9.74-19.87-22.63-16.23-13.23,3.74-14.89,14.31-11.84,26.57,6.15,24.7,12.1,49.46,17.72,74.28,6.62,29.21,11.72,58.79,22.03,87.07,3.73,10.25,10.81,16.06,21.67,14.11,10.23-1.83,14.71-9.6,14.91-19.73.14-7,.03-14,.03-21ZM1111.85,934.68c7.79.48,17.52.33,25.92-4.65,9.71-5.76,16.25-14.64,12.39-26.25-3.79-11.39-14.38-9.17-23.07-7.35-7.46,1.56-14.82,2.58-22.27,1.55-14.19-1.96-15.63-5.25-6.78-16.48,9.15-11.6,15.78-24.34,18.92-38.71,4.68-21.4-10.75-40.59-32.38-40.73-27.01-.18-51.87,24.56-53.2,52.94-2.1,44.82,32.03,79.39,80.46,79.67ZM1179.87,835.26c-3.92-9.17-6.26-15.77-9.49-21.89-3.98-7.54-8.33-15.86-19.24-12.15-9.82,3.34-12.6,12.56-10.76,20.78,7.02,31.23,17.29,61.5,31.47,90.29,3.96,8.04,11.37,10.96,20.06,10.2,9.15-.8,14.05-6.59,16.57-14.96,2.63-8.72,2.73-17.68,3.12-26.68,1.29-29.85,8.42-57.24,32.88-77.38,3.76-3.09,7.06-7.22,9.36-11.52,7.14-13.36,1.41-22.8-13.78-22.3-14.51.48-24.89,8.92-33.98,19.51-11.17,13.03-17.26,28.98-26.22,46.1ZM1013.01,934.73c-.71-2.51-1.65-6.37-2.88-10.14-7.57-23.28-13.12-47.09-18.31-70.98-3.21-14.78-11.15-20.99-23.91-18.18-10.43,2.29-15.65,12.66-12.28,26.4,5.71,23.25,11.85,46.39,18.16,69.48,1.43,5.23,3.75,10.4,6.62,15,4.35,6.98,10.98,10.18,19.26,7.8,8.84-2.54,12.68-9.09,13.34-19.38Z"/>
      <path class="cls-8" d="M441.09,1060.59c-21.52,1.3-40.4-5.1-58.66-13.51-14.04-6.47-25.57-7.39-36.95,6.3-15.48,18.63-34,32.88-59.32,37.86-28.84,5.68-52.98-3.19-76.18-18.35-.83-.54-1.46-1.37-2.25-1.98-16.26-12.65-18.13-12.09-23.26,8.42-3.66,14.62-8.4,28.76-16.69,41.42-14.72,22.45-42.81,30.28-63.77,14.06-47.39-36.67-85.68-80.98-101.69-140.59-7.01-26.09,2.22-49.92,23.3-56.57,23.27-7.34,48.63-6.75,63.56,15.16,2.45,3.59,4.13,9.14,9.71,7.78,5.84-1.43,3.53-7.51,4.63-11.55,6.04-22.13,15.7-40.68,40.11-47.86,15.65-4.61,29.83-3.8,42.19,6.97,7.77,6.77,11.47,4.85,17.81-2.6,33.12-38.97,85.57-38.99,121.27-8.4,9.15,7.84,14.3,7.6,22.1-.71,17.36-18.48,37.97-28.74,64.28-22.36,6.24,1.51,10.9-.86,15.61-5.99,16.35-17.81,35.08-19.27,54.15-4.3,5.96,4.68,9.05,2.99,13.9-1.12,21.1-17.87,43.33-33.48,71.92-37.42,19.78-2.72,36.07,3.67,47.2,19.09,10.26,14.2,7.75,30.42-.7,45.28-8.85,15.56-17.45,30.97-33.36,41.42-14.64,9.62-16.53,25.21-13.27,41.55,5.69,28.55-8.49,62.39-33.06,78.26-6.75,4.36-14.06,7.88-22.53,6.81-18.83-2.38-37.48-2.77-56.01,2.73-4.6,1.36-9.95.2-14.03.2ZM125.6,1052.54c-1.24.19-2.48.38-3.72.57-5.55-11.09-11.23-22.12-16.63-33.28-7.18-14.84-13.47-30.16-21.45-44.55-4.96-8.94-12.88-16.64-24.55-11.11-12.16,5.76-11.81,16.18-7.12,26.89,6.01,13.73,11.99,27.5,18.63,40.92,11.73,23.69,21.7,48.45,40.07,68.25,7.18,7.73,15.75,12.96,26.54,10.18,11.22-2.89,17.29-11.36,19.66-22.43,1.25-5.84,2.17-11.76,3.06-17.67,3.57-23.66,7.31-47.29,10.51-71,2.34-17.28,8.15-34.02,7.79-51.72-.19-9.51-3.37-16.95-13.53-18.73-10.8-1.9-16.81,4.42-20.15,13.8-1.33,3.74-2.1,7.7-2.86,11.61-6.34,32.6-13.26,65.09-16.27,98.28ZM204.79,991.8c-1.65,17.5,2.47,34.25,13.86,48.56,12.95,16.27,30.25,25.01,51.03,22.52,21.08-2.53,33.16-16.96,39.5-36.37,11.62-35.59-2.43-65.66-21.55-94.05-17.28-25.65-46.47-25.36-64.97-.21-12.9,17.53-19.17,37.07-17.86,59.55ZM430.34,946.37c0-4.5.46-9.05-.07-13.49-3.36-28.08-32.51-42.59-55.64-27.35-10.08,6.64-17.68,15.74-22.47,27.37-19.62,47.64,16.44,99.25,60.36,111.84,29.99,8.6,54.9-6.81,61.68-36.22,1.13-4.91,2.7-10.22-1.59-14.1-4.29-3.88-8.5.04-12.38,1.79-7.29,3.28-14.4,6.97-21.55,10.54-7.14,3.57-14.32,3.84-21.68.64-5.62-2.45-7.99-4.83-2.95-10.87,12.02-14.4,16.53-31.61,16.29-50.15ZM518.86,915.03c-2.21-3.78-3.83-6.78-5.66-9.65-4.79-7.5-12.13-9.05-19.72-6.44-7.87,2.71-12.62,9.91-10.86,17.72,6.71,29.78,16.22,58.72,31.93,85.14,4.98,8.37,13.79,9.61,22.61,7.27,8.26-2.19,11.83-9.01,12.81-16.82.93-7.42.32-14.87-1.03-22.35-3.31-18.43-.28-35.64,10.8-51.25,7.56-10.65,15.38-20.3,27.7-26.44,9.66-4.82,14.62-14.11,8.73-25.23-5.72-10.79-15.05-12.06-25.66-7.84-7.54,3-13.65,8.07-19.64,13.44-13.18,11.81-22.31,26.69-32.01,42.45Z"/>
      <path class="cls-9" d="M1204.97,412.2c.68-16.5-6.84-31-11.26-46.26-6.07-20.95-10.37-40.89,4.88-61.2,7.55-10.05-5.71-6.67-9.42-6.96-30.43-2.38-47.87-29.61-37.31-57.99,4.65-12.5,15.19-16.8,25.7-21.17,15.66-6.52,42.92.61,53.82,13.31,9.87,11.49,10.77,31.09.65,47.74-5.87,9.66-5.91,13.68,6.64,15.22,13.57,1.66,21.1,12.25,27.99,22.93,2.06,3.19,2.63,8.52,7.64,8.1,4.71-.4,5.29-5.52,6.92-8.96,19.47-41,54.99-55.09,97.82-40.53,24.13,8.2,49.58,41.23,40.26,69.94-.9,2.77.05,6.14-.85,8.91-3.65,11.23.81,11.63,10.1,8.88,25.79-7.65,47.29-3.15,60.97,22.76,1.92,3.63,6.67,5.79,10.19,8.53,26.96,21.02,21.12,58.96-10.6,72.65-15.61,6.74-32.26,8.19-48.29,8.79-44.21,1.66-89.27,5.83-129.41-20.39-8.19-5.35-14.02-4.52-16.43,7.7-6.32,32.05-18.45,61.51-46.7,80.9-44.33,30.43-106.24,5.02-117.76-47.47-3.54-16.12-3.17-31.86,1.84-47.05,8.84-26.81,21.55-33.51,57.41-32.69-7.26,29.82-9.32,58.4,17.13,81.28,11.47,9.92,23.54,17.83,39.16,12,16.84-6.29,25.74-19.22,28.73-37.07,4.19-24.98-2.36-48.56-8.5-72.09-4.53-17.36-10.01-34.59-18.81-50.45-5.13-9.24-12.91-15.15-23.39-10.92-10.89,4.4-10.77,14.56-8.25,24.34,1.37,5.29,3.82,10.3,5.54,15.51,8.58,26.06,18.11,51.94,17.39,80.01-.1,3.82,1.08,8.94-3.71,10.43-5.58,1.74-8.08-3.19-9.74-7.23-6.98-17.09-13.59-34.33-20.34-51.51ZM1304.31,367.43c.4,8.92.73,17.63,3.22,26.56,14.06,50.37,83.76,68.25,124.66,49.3,8.16-3.78,15.78-8.88,19.75-17.61,3.21-7.06,5.02-14.42-.11-21.28-5.13-6.85-11.85-3.07-17.93-1.6-3.84.93-7.7,2.28-11.17,4.16-15.46,8.38-31.48,8.29-47.89,3.71-13.61-3.8-14.37-5.77-4.06-15.18,12.19-11.12,20.45-24.42,25.01-40.15,6.47-22.3.59-43.45-14.49-52.36-18.12-10.71-37.46-6.67-55.57,10.61-15.52,14.81-22.38,32.66-21.42,53.84ZM1226.62,254.82c.11-11.99-6.23-16.46-15.1-16.59-9.69-.15-16.61,5.6-16.89,15.39-.27,9.29,5.64,14.28,15.45,14.24,10.12-.04,16.1-4.23,16.54-13.04Z"/>
      <path class="cls-8" d="M3265.45,628.01c-47.2-1.56-101.67-31.07-114.24-82.91-9.42-38.88-5.1-77.1,12.49-111.98,8.2-16.25,19.26-27.48,10.8-48.31-5.48-13.5,9.24-31.53,23.82-37.72,14.85-6.3,39.48.41,52.01,14.17,15.42,16.92,18.21,32.51,5.76,51.61-7.42,11.38,1.26,15.38,6.2,20.97,3.26,3.69,5.38-.51,7.48-3.65,18.3-27.34,53.35-33.84,78.33-12.2,11.51,9.97,18.01,6.85,27.94-.05,28.71-19.96,48.54-17.38,73.29,6.64,11.42,11.09,15.61,25.4,21.01,39.21,9.42,24.11,15.54,49.33,27.57,72.67,10.77,20.9-2.1,46.41-25.09,51.92-33.75,8.09-55.09,7.97-70.85-29.36-.97-2.3-1.53-5.13-4.55-5.23-4.88-.16-4.8,4.37-6.06,7.34-8.54,20.08-21.67,34.51-44.73,37.04-7.19.79-10.33,7.5-15.7,10.98-15.45,10-45.9,18.92-65.48,18.88ZM3340.45,482.62c-3.78-6.35-4.53-11.68-5.14-17.16-1.33-11.94-5.3-22.31-20-20.58-13.85,1.62-15.92,13.35-14.95,23.75,1.71,18.32,5,36.55,13.51,53.37,5.63,11.14,12.08,21.63,26.22,21.15,13.86-.47,20.5-10.69,25.5-22.22,5.36-12.35,10.1-25.08,16.65-36.78,9.44-16.88,16.66-16.72,28.21-.64,9.98,13.88,16.07,29.88,24.11,44.82,4.49,8.35,8.48,17.24,16.39,22.95,8.69,6.27,18.15,6.55,25.95-1.21,6.57-6.54,9.12-15.53,2.13-22.86-10.34-10.85-15.29-24.48-21.93-37.24-8.82-16.94-18.53-33.05-33.26-45.69-18.83-16.16-39.57-15.66-57.76,1.2-10.83,10.04-17.82,22.62-25.62,37.16ZM3253.68,583.2c12.92-.16,28.39-5.74,35.74-13.38,8.59-8.94,11.06-20.65,4.71-30.24-6.62-9.98-16.83-4.28-25.24.68-17.87,10.55-29.6,6.13-37-13.21-5.34-13.96-4.88-28.38-5.13-42.85-.19-10.8-3.29-19.91-15.99-21.61-13.84-1.85-18.45,7-20.87,18.24-.52,2.43-1.24,4.95-1.07,7.37,1.53,21.43,3.26,42.86,13.35,62.43,10.79,20.92,27.99,31.81,51.51,32.56ZM3230.49,404.22c7.22-1.97,16.28-3.46,16.45-14.74.16-10.51-12.32-22.77-22.72-22.21-10.44.56-16.7,6.58-17.35,17.1-.62,10.09,10.66,19.67,23.62,19.85ZM3266.94,461.3c-8.12,16.41-7.25,31.06-8.61,44.82-.89,9.01,8.16,11.52,16.43,10.49,9.67-1.21,5.23-7.68,3.98-12.45-3.45-13.22-7.23-26.36-11.8-42.86Z"/>
      <path class="cls-8" d="M1574.29,895.75c-27.12-1.34-53.15-8.07-77.91-18.85-21.96-9.57-25.01-9.04-31.19,12.77-5.51,19.44-17.44,33.33-35.45,42.3-21.89,10.9-43.38,22.91-69.46,17.33-20.14-4.31-37.25-20.27-40.09-39.78-3.05-20.92,2.82-38.44,21.9-50.2,8.93-5.51,17.17-12.26,28.13-13.24,12.39-1.11,14.2-8.85,12-18.96-2.98-13.65-5.97-27.31-9.37-40.85-3.81-15.14-4.29-29.99,5.35-43.06,4.7-6.37,1.42-8.82-2.38-13.44-20.99-25.53-13.13-56.14,16.54-66.27,17.39-5.94,33.12-.75,44.86,14.82,8.13,10.78,9.16,32.77-.49,43.61-9.54,10.73-1.17,15.14,4.9,20.19,8.76,7.29,10.28-2.06,13.86-6.87,23-30.86,59.24-40.98,93.5-33.61,33.83,7.28,48.48,41.17,37.74,79.08-1.54,5.44-8.59,11.19-3.44,16.38,5.83,5.88,13.26.25,19.72-1.59,27.59-7.85,53.43,6.6,58.31,33.31,2.4,13.14-1.46,25.15-10.8,34.42-20.95,20.79-45.13,34.68-76.19,32.54ZM1563.34,862.42c18.62.63,35.01-4.37,45.15-21,5.06-8.3,11.47-20.14,5.72-27.58-6.47-8.39-16.3,1.36-23.96,4.92-17.22,7.99-34.15,10.33-51.76,1.41-7.97-4.04-10.9-6.92-2.43-14.63,11.52-10.5,19.93-23.6,22.39-39.67,3.48-22.76-16.43-40.01-38.29-33.09-29.96,9.48-47.97,51.45-35.18,81.99,12.2,29.12,42.88,47.8,78.36,47.65ZM1452.07,864.13c-2.05-24.33-4.11-52.66-6.97-80.9-1.04-10.26-6.79-18.7-18.05-18.54-11.95.17-17.57,8.32-17.52,20,.05,10.96.41,21.87,1.63,32.85,2.3,20.77,5.68,41.53,4.49,62.57-.19,3.29.71,7.63-3.92,8.57-3.51.72-4.88-2.8-6.75-5.03-5.78-6.86-11.42-13.85-17.41-20.52-2.53-2.82-5.22-6.97-9.91-4.77-4.27,2.01-3.96,6.6-4,10.57-.09,7.99-.48,16.02.16,23.96,1.42,17.68,19.12,37.12,34.5,38.57,18.42,1.74,35.6-12.1,41.11-32.12,2.85-10.37,2.35-20.76,2.65-35.2ZM1409.11,712.01c9.8-.19,14.7-1.3,14.61-9.09-.15-13.15-8.86-23.88-19.92-23.82-10.56.06-15.57,5.75-15.21,16.06.37,10.48,10.25,17.15,20.51,16.84Z"/>
      <path class="cls-9" d="M2437.21,92.88c2.58,18.51-4.57,40.13-2.98,62.12,1.51,20.77.82,42.06,13.86,60.22,1.11,1.55,1.74,3.7,1.91,5.64,1.41,15.96,7.58,30.22,13.37,45.03,8.91,22.76-3.99,43.68-27.78,50.56-18.19,5.26-40.76-9.11-45.44-30.82-1.86-8.64-5.53-13.83-12.02-19.11-14.06-11.45-17.01-29.05-21.4-45.16-6.01-22.07-9.92-44.7-9.72-67.81.05-5.94.96-12.34-8.81-11.76-38.3,2.29-56.87-15.44-57.21-54.09-.42-47.09,37.68-85.88,86.08-87.64,43.89-1.6,69.97,23.79,70.13,68.27.02,7,0,14,0,24.54ZM2365.17,144.78c-1.37,19.66-.28,37.76,10.68,53.23,6.71,9.47,16.48,20.25,28.44,13.83,11.28-6.06,7.22-19.78,3.08-29.83-4.91-11.92-6.48-23.86-6.56-36.55-.12-18.25,4.88-35.59,7.95-53.27,2.58-14.85.43-28.99-6.77-42.11-10.77-19.61-37.72-27.03-60.58-17.11-20.95,9.09-33.18,32.49-26.75,52.88,2.8,8.89,8.71,16.54,19.38,15.64,10.49-.89,13.78-8.33,13.22-18.21-.55-9.69,2.68-17.32,13.85-17.21,12.35.12,10.29,9.88,10.39,17.62.26,21.07-9.31,41.11-6.32,61.1ZM2427.36,282.42c9.54-.22,15.52-4.34,15.39-14.22-.12-9.29-5.51-14.93-14.63-15.56-9.73-.68-14.53,5.03-14.76,14.49-.23,9.56,4.62,14.68,14,15.29Z"/>
      <path class="cls-8" d="M3632.61,507.58c1.32,12.19-.43,22.95-5.66,32.95-2.99,5.71-2.62,11.08-1.21,17.29,3.68,16.15-4.56,33.8-18.72,42.39-11.11,6.74-32.62,5.15-42.48-3.13-14.2-11.93-18.87-28.3-11.51-45.59,3.23-7.57,2.66-13.45.12-21.12-5.94-17.93-9.49-36.49-10.52-55.59-2.55-47.21-6.33-94.36-8.67-141.58-1.05-21.27,12.45-38.45,32.62-45.07,21.9-7.19,44.84,4.81,50.4,27.12,2.27,9.11,3.36,18.67,3.74,28.07,1.97,49.75,5.5,99.35,11.8,148.75.69,5.41.09,10.98.09,15.52ZM3602.84,458.65c-1.27-18.03-1.3-32.59-3.51-46.82-3.61-23.24-.61-46.96-5.74-70.01-2.51-11.29-9.46-18.1-21.19-16.6-10.38,1.32-15.47,8.91-14.65,19.29,3,37.74,3.28,75.71,9.04,113.2,2.39,15.55,10.12,22.12,22.49,20.22,13.59-2.09,13.24-12.79,13.56-19.28ZM3611.84,560.12c-1.03-8.49-5.72-15.47-15.66-15.32-9.9.15-15,6.36-14.5,16.74.5,10.34,5.72,15.58,16,15.17,9.73-.38,13.98-6.21,14.17-16.59Z"/>
      <path class="cls-7" d="M1204.97,412.2c6.75,17.18,13.36,34.42,20.34,51.51,1.65,4.05,4.16,8.97,9.74,7.23,4.79-1.49,3.61-6.61,3.71-10.43.73-28.07-8.81-53.95-17.39-80.01-1.72-5.21-4.17-10.22-5.54-15.51-2.52-9.78-2.64-19.95,8.25-24.34,10.47-4.23,18.26,1.68,23.39,10.92,8.8,15.86,14.28,33.09,18.81,50.45,6.15,23.53,12.69,47.11,8.5,72.09-2.99,17.84-11.9,30.78-28.73,37.07-15.62,5.83-27.69-2.07-39.16-12-26.45-22.88-24.39-51.46-17.13-81.28,1.47-11.51,6.19-14.33,15.2-5.7Z"/>
      <path class="cls-7" d="M2130.37,237.42c6.08,16.75,11.04,32.95-1.59,49.69-16.49,21.84-48.5,25.65-68.9,7.45-21.79-19.44-28.8-46.33-36.6-72.6-2.47-8.3.05-17.62,10.56-20.26,9.95-2.5,17.45.88,21.54,11.11,5.38,13.46,11,26.85,17.16,39.97,3.63,7.72,8.2,15.58,18.57,14.96,10.62-.63,11.11-10.09,13.72-17.35,1.85-5.15,3.02-10.54,4.49-15.82,7.61-11.93,9.18-11.71,21.04,2.86Z"/>
      <path class="cls-9" d="M974.1,793.27c-7,0-14,0-21,0-3.09-12.02-14.1-17.53-21.54-25.92-17.46-19.66-14.79-44.25,6.72-57.19,12.87-7.74,32.48-5.35,45.79,5.58,10.21,8.39,13.22,25.37,9.1,39.74-4.01,13.98-14.36,24.38-19.06,37.78ZM957.89,769.05c10.95.51,15.77-2.28,16.34-10.66.64-9.37-4.33-14.71-12.79-15.06-7.89-.33-13.09,5.57-13.61,13.18-.58,8.54,5.4,12.16,10.06,12.54Z"/>
      <path class="cls-10" d="M2903.29,523.29c-2.13-9.19-4.29-19.93-7.17-30.49-1.87-6.85-2.49-13.7-2.69-20.72-.32-10.81,3.66-18.86,14.7-21.21,11.01-2.33,18.19,3.69,22.55,13.2,5.26,11.5,7.14,23.92,8.1,36.35,2.28,29.65,17.37,52.56,37.51,72.89,3.57,3.6,8.03,6.05,13.17,6.67,12.35,1.49,17.89,8.36,15.57,20.55-2.3,12.1-11.43,15.91-22.31,15.37-13.18-.65-23.11-8.32-32.56-16.85-6.61-5.97-11.44-17.81-19.38-17.29-8.47.56-9.36,13.83-14.68,20.89-13.07,17.35-28.34,29.78-51.56,26.1-22.97-3.64-35.82-18.48-41.2-40.25-6.5-26.32,18.47-66.26,44.74-71.28,7.74-1.48,15.92-2.16,22.78,3.93,10.38,9.23,7.65,23.84-6.57,27.91-11.39,3.26-17.58,10.49-22.68,19.98-4.36,8.1-4.43,16.06,3.59,21.17,8.71,5.56,15.44-.21,20.17-7.14,11.92-17.45,15.37-37.61,17.94-59.81Z"/>
      <path class="cls-10" d="M2288.47,671.28c-6.87,13.33-12.25,26.36-19.84,37.94-17.31,26.43-46.67,25.56-63.28-1.32-10.56-17.1-17.71-35.79-24.41-54.65-3.73-10.49-.99-19.71,9.04-23.94,10.26-4.32,18.6.83,23.18,10.75,5.23,11.34,9.81,22.98,14.87,34.4,1.99,4.5,3.41,10.85,8.61,11.49,6.28.77,6.56-6.48,8.59-10.56,5.09-10.29,9.22-21.07,14.24-31.4,11.59-23.85,32.13-26.35,49.69-6.39,7.26,8.25,14.71,16.33,22.28,24.29,1.61,1.69,4.33,3.74,6.22,3.46,3.74-.57,3.08-4.48,3.32-7.35,1.4-16.6-.72-32.97-4.02-49.14-2.55-12.51,2.28-21.73,13.55-24.66,11.4-2.96,18.93,4.6,21.52,15.79,5.92,25.53,8.57,51.34,2.37,77.15-7.84,32.64-31.76,40.87-58.23,19.97-9.69-7.65-18.17-16.85-27.7-25.83Z"/>
      <path class="cls-10" d="M1990.82,683.37c-10.61,17.62-13.15,36.68-19.01,54.55-1.71,5.21-2.7,10.71-4.91,15.69-7.63,17.21-26.72,20.68-36.81,5.18-16.15-24.81-25.13-53.15-32.87-81.58-2.07-7.59,2.83-15.14,10.7-17.81,8.77-2.97,16.01,1.67,20.2,9.05,5.36,9.44,9.38,19.64,14.65,30.97,8.38-14.81,11.37-30.23,19.88-43.15,16.73-25.41,38.8-26.02,55.34-.2,8.03,12.53,13.93,26.47,20.41,39.95,8.83,18.38,15.32,37.83,28.34,54.21,6.99,8.79,3.94,18.3-4.59,25.07-8.13,6.45-21.63,3.16-28.92-7.1-11.06-15.58-17.94-33.37-25.39-50.81-4.84-11.34-9.58-22.71-17.04-34.03Z"/>
      <path class="cls-10" d="M1739.79,752.8c1.48-27.08,11.48-50.31,32.32-68.19,17.36-14.9,35.16-8.5,50.13,7.68,21.36,23.08,36.39,55.91,74.11,59.09,7.78.66,9.48,6.21,9.18,12.89-.45,10.26-5.74,17.09-15.54,19.5-12.47,3.07-24.1-.79-34.01-7.94-11.24-8.11-17.56-10.05-27.18,4.45-17.16,25.87-46.96,29.73-70.73,12.89-13.92-9.86-19.44-23.54-18.29-40.38ZM1807.17,739.13c.8-6.91-3.58-12.64-4.11-19.13-.84-10.22-5.84-9.15-11.55-3.75-7.52,7.11-11.53,16.44-13.71,26.23-1.85,8.33-6.35,19.11,5.92,22.96,11.71,3.67,16.93-5.81,20.96-14.7,1.6-3.52,1.71-7.72,2.49-11.61Z"/>
      <path class="cls-10" d="M2403.77,636.02c.15-39.69,22.38-67.48,55.88-66.91,26.78.46,63.89,29.68,62.36,65.45-1.47,34.28-28.46,59.88-65.75,59.58-32.09-.26-52.62-22.99-52.49-58.12ZM2458.97,606.92c-12.34-.31-18.66,8.49-19.03,26.51-.32,16.07,5.46,24.25,17.23,24.38,14.05.16,27.88-11.3,28.15-23.34.3-13.05-13.25-27.21-26.36-27.55Z"/>
      <path class="cls-10" d="M2601.41,661.15c-1.32-.1-6.37-.03-11.24-.92-22.65-4.15-42.06-14.57-46.53-38.45-4.97-26.57,6.78-48.91,27.29-65.91,20.61-17.09,42.57-15.35,71.07,4.33,20.34,14.05,28.91,39.38,21.45,63.4-7.39,23.79-28.71,37.5-62.04,37.56ZM2601.86,624.79c18.35.41,27.49-6.12,27.53-18.24.04-11.21-10.95-22.78-21.7-22.85-12.94-.09-29.77,15.08-28.3,26.98,1.77,14.34,14.77,11.97,22.48,14.11Z"/>
      <path class="cls-10" d="M2124.14,742.11c-17.46-.76-32.23-11.15-44.57-25.78-14-16.6-23.59-37.02-29.9-56.3-5.28-16.11-6.5-35.55-9.04-53.58-1.25-8.86-2.74-17.78-2.87-26.69-.13-9.03,2.74-16.9,13.73-18.14,11.01-1.25,16.9,4.08,19.09,14.43,2.9,13.66,6.4,27.22,8.58,40.99,1.71,10.78,5.48,14.9,16.73,10.48,12.91-5.07,26.69-2.21,40.11-2.26,3.07-.01,6.22.84,7.67,3.81,1.95,4-1.09,6.6-3.6,8.93-10.64,9.93-21.84,19.21-36.08,23.47-9.22,2.76-10.45,7.55-6,15.53,4.14,7.42,7.68,15.08,14.15,20.99,6.96,6.36,13.08,9.15,22.15,2.26,11.21-8.52,20.27-4.08,23.22,9.84,3.57,16.83-10.78,31.72-33.36,32.03Z"/>
      <path class="cls-10" d="M2721.03,564.71c8.97-18.59,19.2-32.59,32.43-44.41,8.07-7.21,17.34-11.98,27.68-14.32,9.89-2.24,18.42,1.15,22.04,10.86,3.32,8.91.45,18.1-8.5,21.63-31.28,12.32-40.25,39.44-47.37,68.18-3.2,12.91-3.79,29.02-21.73,29.72-16.97.67-21.09-14.11-25.89-26.81-5.48-14.49-11.31-28.87-16.27-43.54-5.27-15.61-1.9-25.38,9.43-28.61,14.5-4.14,19.46,5.87,23.59,16.78,1.04,2.75,2.35,5.4,4.59,10.53Z"/>
      <path class="cls-12" d="M1657.39,364.61c12.26.46,23.79-2.95,35.5-5.53,14.93-3.29,21.04,3.84,15.92,18.2-3.83,10.73-12.09,17.59-22.55,20.33-34.81,9.14-68.23,4.19-96.35-18.09-30.28-24-29.04-57.92-21.85-91.96,2.17-10.27,6.29-19.88,12.45-28.67,8.59-12.26,18.91-20.75,34.88-18.57,15.54,2.12,24.75,12.63,30.56,25.85,11.69,26.58,5.46,55.28-15.69,76.96-12.41,12.72-12.06,14.72,4.93,18.82,7.19,1.74,14.79,1.83,22.2,2.67ZM1616.74,294.75c-.03-5.56-.2-11.56-4.51-12.82-6.14-1.79-5.57,5.29-7.45,8.87-.69,1.31-1.27,2.81-1.37,4.26-.58,8.2-5.88,15.99-2.18,24.48.17.38,3.06.28,3.96-.47,7.84-6.55,9.55-15.99,11.55-24.32Z"/>
      <path class="cls-12" d="M1892.24,336.86c-15.57,1.25-27.65-5.2-37.08-16.5-13.79-16.53-20.94-36.2-24.45-57.16-1.75-10.43,1.59-19.7,12.77-22.17,11.72-2.59,18.79,3.98,21.78,15.31,3.44,13.03,6.89,26.05,15.78,36.8,7.82,9.46,15.34,9.36,23.84.64,12.69-13.02,15.58-29.69,18.42-46.49.91-5.39,1.54-10.86,2.92-16.12,2.05-7.84,8.18-10.9,15.63-11.8,7.73-.94,13.76,1.85,17.55,8.76,2.88,5.26,5.33,10.65,6.14,16.77,1.39,10.55,5.57,20.2,10.82,29.36,9.12,15.9,20.02,19.93,37.62,14.67,8.81-2.63,19.06-8.35,24.34,4.66,4.89,12.04-.91,21.65-10.68,28.26-18.57,12.55-48.03,9.38-65.91-9.33-11.48-12.01-17.27-10.24-26.58,1.6-10.64,13.54-23.94,24.48-42.91,22.73Z"/>
      <path class="cls-7" d="M2229.26,279.7c-29.48-4.8-49.09-25.75-64.14-52.36-6.59-11.65-7.6-26.07-17.77-36.03-.92-.9-1.52-2.99-1.18-4.21,5.59-19.85-2.33-39.74.29-59.53,1.48-11.17,6.15-21.65,19.01-21.25,13.37.41,15.91,11.23,16.24,22.74.89,30.61,1.01,30.55,31.25,26.27,7.58-1.07,17.74-5.93,21.41,3.49,3.47,8.89-7.09,13-12.89,17.93-4.54,3.86-9.53,8.26-15.04,9.7-18.29,4.78-14.17,14.49-7.46,26.19,4.04,7.05,8.48,13.52,14.48,18.95,9.02,8.17,17.64,14.47,26.04-1.05,3.96-7.32,9.46-5.68,14.66-.5,9.56,9.54,11.78,21.2,7.38,33.22-4.82,13.18-16.84,15.83-32.3,16.44Z"/>
      <path class="cls-12" d="M1736.16,274.31c5.85-11.61,9.42-24.59,17.81-35.18,9.87-12.46,21.48-21.96,36.76-26.94,9.32-3.04,16.96.45,23.52,6.01,9.1,7.72,8.57,20.96-1.88,24.56-45.69,15.79-40.95,48.04-37.78,84.52.65,7.44,1.72,14.9,1.55,22.33-.21,9.04-3.73,16.96-13.28,19.54-9.51,2.57-18.51.2-23.49-8.71-14.84-26.54-29.65-53.14-38.51-82.53-3.37-11.18-3.46-22.33,8.39-26.84,12.63-4.8,16.79,6.86,21.23,15.81,1.27,2.56,1.02,6.1,5.68,7.41Z"/>
      <path class="cls-11" d="M2043.56,147.46c-13.43-.18-21.01-7.34-21.08-19.73-.07-11.66,6.47-17.64,17.24-18.33,9.65-.61,21.58,12.74,21.64,23.22.07,11.93-7.59,15.03-17.8,14.85Z"/>
      <path class="cls-10" d="M626.73,456.06c24.95-31.28,45.63-34.28,77.56-13,38.19,25.44,57.1,67.87,48.05,107.82-7.5,33.12-30.12,48.93-63.83,43.71-28.93-4.48-52.27-18.99-70.28-41.98-4.32-5.51-8.27-11.61-9.12-18.68-5.02-42.06-24.04-80.09-34.45-120.58-1.24-4.83-2.38-9.71-3.98-14.43-3.93-11.58-2.14-21.75,10.16-25.75,13.53-4.4,20.05,4.4,23.75,16.28,5.63,18.11,11.54,36.14,17.41,54.18,1.21,3.73,2.78,7.34,4.74,12.44ZM718.48,542.56c-1.41-33.88-11.67-54.27-33.62-68.44-18.06-11.66-27.2-7.67-28.7,14.08-.89,12.9.79,26-.25,38.88-.91,11.28,3.55,18.19,13.15,22.5,6.34,2.84,12.78,5.64,19.44,7.52,19.43,5.49,30.09-2.86,29.98-14.54Z"/>
      <path class="cls-10" d="M942.6,419.69c4.62-18.86,8.13-35.61,17.95-50.45,14.61-22.09,38.81-25.7,58.52-7.6,15.79,14.5,26.37,32.52,35.01,51.79,7.55,16.85,13.85,34.22,23.32,50.24,5.68,9.61,8.05,20.48-3.32,27.86-11.38,7.39-20.16.64-26.85-8.3-9.65-12.89-15.31-28-21.74-42.62-6.44-14.66-12.8-29.36-22.24-42.39-7.7-10.64-12.57-10.15-17.33,2.26-5.56,14.5-8.5,29.72-8.59,45.35-.09,16,.3,32.01-.28,47.98-.35,9.56-4.23,17.99-14.81,19.92-10.62,1.93-19.96-.69-25.31-11.31-15.78-31.3-27.16-64.4-39.39-97.14-3.73-9.99-.09-18.39,9.43-22.3,9.59-3.94,17.75.13,22.58,9.26,4.38,8.27,8.07,16.9,13.05,27.45Z"/>
      <path class="cls-12" d="M761.04,464.33c.14-33.47,22.81-63.64,53.47-71.16,36.27-8.89,62.84,18.29,52.73,54.4-6.32,22.58-20.03,40.25-40.01,52.25-10.4,6.24-10.94,9.88-.21,15.87,18.56,10.36,37.12,10.2,55.98,1.58,8.65-3.95,17.17-8.25,26.77-9.21,12.44-1.25,15.62,2.98,11.43,14.68-7.87,21.95-33.32,37.71-62.56,38.76-51.07,1.83-97.82-44.71-97.6-97.16ZM797.09,464.82c.29,3.04-.53,6.5,2.25,8.41,3.71,2.55,6.33-.62,9.22-2.48,10.43-6.7,17.69-15.86,22.02-27.45,1.77-4.74,4.18-9.83-.51-13.78-4.68-3.93-9.86-.59-13.83,1.76-12.61,7.46-17.8,19.56-19.14,33.55Z"/>
      <path class="cls-10" d="M836.03,934.85c0,7,.11,14-.03,21-.2,10.14-4.68,17.9-14.91,19.73-10.86,1.95-17.93-3.87-21.67-14.11-10.3-28.28-15.41-57.86-22.03-87.07-5.62-24.83-11.57-49.58-17.72-74.28-3.05-12.26-1.39-22.83,11.84-26.57,12.89-3.65,18.93,5.18,22.63,16.23,7.32,21.84,11.89,44.36,17.1,66.73,1.21,5.17,1.15,10.25,9.03,4.8,34.17-23.62,69.32-16.1,90.5,18.61,6.19,10.14,8.7,22.17,22.78,27.48,9.82,3.7,14.79,36.72,10.1,47.41-6.41,14.6-22.76,17.64-34.49,6.53-9.18-8.7-11.4-20.87-16.22-31.75-5.44-12.27-8.33-25.8-17.99-35.95-15-15.76-30.36-12.15-37.03,8.46-3.5,10.81-1.77,21.83-1.91,32.76Z"/>
      <path class="cls-10" d="M1111.85,934.68c-48.43-.28-82.56-34.84-80.46-79.67,1.33-28.38,26.18-53.12,53.2-52.94,21.63.14,37.05,19.33,32.38,40.73-3.14,14.37-9.77,27.11-18.92,38.71-8.85,11.22-7.41,14.52,6.78,16.48,7.45,1.03,14.81,0,22.27-1.55,8.69-1.82,19.29-4.04,23.07,7.35,3.86,11.61-2.68,20.49-12.39,26.25-8.4,4.98-18.13,5.13-25.92,4.65Z"/>
      <path class="cls-10" d="M1179.87,835.26c8.96-17.12,15.05-33.07,26.22-46.1,9.09-10.59,19.47-19.03,33.98-19.51,15.19-.5,20.92,8.94,13.78,22.3-2.3,4.3-5.6,8.42-9.36,11.52-24.46,20.14-31.6,47.53-32.88,77.38-.39,9-.49,17.96-3.12,26.68-2.52,8.37-7.42,14.16-16.57,14.96-8.69.76-16.1-2.16-20.06-10.2-14.19-28.79-24.45-59.06-31.47-90.29-1.85-8.22.94-17.44,10.76-20.78,10.91-3.71,15.25,4.6,19.24,12.15,3.23,6.12,5.57,12.72,9.49,21.89Z"/>
      <path class="cls-10" d="M1013.01,934.73c-.66,10.3-4.5,16.84-13.34,19.38-8.28,2.38-14.91-.82-19.26-7.8-2.87-4.6-5.19-9.77-6.62-15-6.31-23.09-12.45-46.24-18.16-69.48-3.37-13.74,1.85-24.11,12.28-26.4,12.77-2.81,20.71,3.4,23.91,18.18,5.18,23.89,10.74,47.7,18.31,70.98,1.23,3.77,2.17,7.63,2.88,10.14Z"/>
      <path class="cls-10" d="M125.6,1052.54c3-33.19,9.92-65.69,16.27-98.28.76-3.91,1.53-7.87,2.86-11.61,3.34-9.37,9.35-15.69,20.15-13.8,10.16,1.78,13.33,9.22,13.53,18.73.36,17.7-5.45,34.44-7.79,51.72-3.2,23.71-6.95,47.34-10.51,71-.89,5.91-1.81,11.83-3.06,17.67-2.37,11.08-8.44,19.54-19.66,22.43-10.79,2.78-19.36-2.45-26.54-10.18-18.37-19.8-28.34-44.57-40.07-68.25-6.65-13.42-12.62-27.19-18.63-40.92-4.69-10.71-5.04-21.13,7.12-26.89,11.67-5.53,19.6,2.18,24.55,11.11,7.98,14.39,14.27,29.71,21.45,44.55,5.4,11.16,11.08,22.19,16.63,33.28,1.24-.19,2.48-.38,3.72-.57Z"/>
      <path class="cls-10" d="M204.79,991.8c-1.31-22.48,4.96-42.03,17.86-59.55,18.5-25.14,47.69-25.44,64.97.21,19.13,28.39,33.17,58.46,21.55,94.05-6.34,19.42-18.42,33.84-39.5,36.37-20.77,2.49-38.08-6.25-51.03-22.52-11.39-14.32-15.51-31.06-13.86-48.56ZM277.17,1000.9c-.1-16.51-8.69-30.66-17.11-44.73-3.06-5.11-6.86-4-10.69.47-10.3,12.03-13.02,44.83-4.05,58.14,4.55,6.75,10.54,13.1,19.36,11.68,8.91-1.43,9.68-10.36,11.81-17.37.7-2.32.44-4.93.67-8.2Z"/>
      <path class="cls-10" d="M430.34,946.37c.25,18.54-4.27,35.75-16.29,50.15-5.04,6.04-2.67,8.43,2.95,10.87,7.36,3.2,14.54,2.93,21.68-.64,7.15-3.58,14.26-7.27,21.55-10.54,3.88-1.74,8.08-5.67,12.38-1.79,4.29,3.88,2.72,9.19,1.59,14.1-6.77,29.4-31.69,44.81-61.68,36.22-43.92-12.59-79.98-64.2-60.36-111.84,4.79-11.63,12.39-20.72,22.47-27.37,23.13-15.24,52.28-.73,55.64,27.35.53,4.43.07,8.99.07,13.49ZM393.67,936.73c-11.55,13.42-14.02,24.49-6.43,38.39,8.3-11.27,7.74-22.84,6.43-38.39Z"/>
      <path class="cls-10" d="M518.86,915.03c9.7-15.76,18.83-30.64,32.01-42.45,5.99-5.37,12.1-10.44,19.64-13.44,10.61-4.22,19.94-2.95,25.66,7.84,5.9,11.11.93,20.41-8.73,25.23-12.32,6.14-20.14,15.79-27.7,26.44-11.08,15.61-14.12,32.81-10.8,51.25,1.34,7.48,1.96,14.93,1.03,22.35-.98,7.81-4.55,14.63-12.81,16.82-8.82,2.34-17.64,1.1-22.61-7.27-15.71-26.41-25.21-55.36-31.93-85.14-1.76-7.8,2.98-15.01,10.86-17.72,7.58-2.61,14.93-1.06,19.72,6.44,1.83,2.87,3.45,5.87,5.66,9.65Z"/>
      <path class="cls-12" d="M1304.31,367.43c-.96-21.18,5.9-39.03,21.42-53.84,18.11-17.28,37.45-21.31,55.57-10.61,15.08,8.91,20.96,30.06,14.49,52.36-4.56,15.72-12.82,29.02-25.01,40.15-10.31,9.41-9.55,11.38,4.06,15.18,16.41,4.58,32.43,4.67,47.89-3.71,3.47-1.88,7.33-3.23,11.17-4.16,6.08-1.47,12.8-5.24,17.93,1.6,5.13,6.85,3.32,14.22.11,21.28-3.97,8.72-11.59,13.83-19.75,17.61-40.91,18.96-110.61,1.08-124.66-49.3-2.49-8.92-2.82-17.64-3.22-26.56ZM1361.82,342.59c-.6-4.11-.44-8.89-4.62-6.98-10.46,4.78-14.25,14.71-16.3,25.25-.52,2.66-.92,7.65,2.73,7.23,8.53-.98,11.16-8.92,14.47-15.46,1.77-3.5,2.76-7.38,3.72-10.03Z"/>
      <path class="cls-11" d="M1226.62,254.82c-.44,8.8-6.41,12.99-16.54,13.04-9.81.04-15.72-4.95-15.45-14.24.28-9.79,7.2-15.53,16.89-15.39,8.86.13,15.21,4.61,15.1,16.59Z"/>
      <path class="cls-10" d="M3340.45,482.62c7.8-14.54,14.78-27.12,25.62-37.16,18.19-16.86,38.93-17.36,57.76-1.2,14.73,12.64,24.44,28.75,33.26,45.69,6.64,12.76,11.59,26.39,21.93,37.24,6.99,7.34,4.44,16.33-2.13,22.86-7.8,7.76-17.26,7.48-25.95,1.21-7.91-5.71-11.9-14.6-16.39-22.95-8.04-14.94-14.13-30.93-24.11-44.82-11.55-16.07-18.77-16.24-28.21.64-6.54,11.71-11.29,24.43-16.65,36.78-5.01,11.53-11.64,21.75-25.5,22.22-14.14.47-20.59-10.01-26.22-21.15-8.5-16.82-11.79-35.05-13.51-53.37-.97-10.4,1.09-22.13,14.95-23.75,14.7-1.72,18.68,8.64,20,20.58.61,5.48,1.36,10.81,5.14,17.16Z"/>
      <path class="cls-10" d="M3253.68,583.2c-23.51-.75-40.72-11.64-51.51-32.56-10.09-19.58-11.82-41.01-13.35-62.43-.17-2.42.54-4.94,1.07-7.37,2.42-11.24,7.03-20.09,20.87-18.24,12.7,1.7,15.81,10.81,15.99,21.61.25,14.48-.22,28.89,5.13,42.85,7.4,19.34,19.13,23.77,37,13.21,8.41-4.96,18.62-10.66,25.24-.68,6.36,9.58,3.88,21.3-4.71,30.24-7.35,7.64-22.81,13.21-35.74,13.38Z"/>
      <path class="cls-7" d="M3230.49,404.22c-12.96-.19-24.23-9.76-23.62-19.85.64-10.51,6.91-16.53,17.35-17.1,10.41-.56,22.89,11.69,22.72,22.21-.18,11.28-9.23,12.77-16.45,14.74Z"/>
      <path class="cls-4" d="M3266.94,461.3c4.57,16.5,8.35,29.64,11.8,42.86,1.25,4.77,5.69,11.24-3.98,12.45-8.26,1.03-17.32-1.47-16.43-10.49,1.36-13.76.49-28.42,8.61-44.82Z"/>
      <path class="cls-10" d="M1563.35,862.44c-35.48.12-66.17-18.55-78.37-47.67-12.79-30.54,5.22-72.51,35.18-81.99,21.85-6.91,41.77,10.33,38.29,33.09-2.46,16.06-10.87,29.17-22.39,39.67-8.47,7.72-5.54,10.6,2.43,14.63,17.61,8.93,34.54,6.58,51.76-1.41,7.66-3.56,17.49-13.31,23.96-4.92,5.74,7.44-.66,19.28-5.72,27.58-10.14,16.63-26.53,21.63-45.14,21.02Z"/>
      <path class="cls-10" d="M1452.07,864.13c-.31,14.44.2,24.83-2.65,35.2-5.51,20.02-22.69,33.86-41.11,32.12-15.39-1.45-33.08-20.89-34.5-38.57-.64-7.94-.25-15.97-.16-23.96.04-3.97-.27-8.56,4-10.57,4.69-2.2,7.38,1.95,9.91,4.77,5.99,6.67,11.63,13.66,17.41,20.52,1.87,2.22,3.24,5.74,6.75,5.03,4.63-.94,3.73-5.28,3.92-8.57,1.19-21.04-2.19-41.79-4.49-62.57-1.22-10.97-1.58-21.89-1.63-32.85-.05-11.67,5.57-19.82,17.52-20,11.26-.16,17.01,8.28,18.05,18.54,2.86,28.24,4.93,56.57,6.97,80.9Z"/>
      <path class="cls-11" d="M1409.11,712.01c-10.26.31-20.15-6.36-20.51-16.84-.36-10.31,4.65-16,15.21-16.06,11.06-.06,19.77,10.67,19.92,23.82.09,7.79-4.81,8.89-14.61,9.09Z"/>
      <path class="cls-7" d="M2365.17,144.78c-2.99-19.99,6.59-40.03,6.32-61.1-.1-7.74,1.96-17.51-10.39-17.62-11.17-.1-14.4,7.52-13.85,17.21.56,9.88-2.72,17.32-13.22,18.21-10.67.9-16.58-6.75-19.38-15.64-6.43-20.39,5.8-43.79,26.75-52.88,22.86-9.92,49.81-2.5,60.58,17.11,7.2,13.11,9.35,27.25,6.77,42.11-3.07,17.69-8.06,35.02-7.95,53.27.08,12.69,1.65,24.63,6.56,36.55,4.14,10.05,8.2,23.76-3.08,29.83-11.96,6.43-21.73-4.36-28.44-13.83-10.95-15.47-12.05-33.57-10.68-53.23Z"/>
      <path class="cls-11" d="M2427.36,282.42c-9.38-.61-14.23-5.73-14-15.29.23-9.46,5.03-15.17,14.76-14.49,9.12.63,14.51,6.27,14.63,15.56.13,9.88-5.85,14-15.39,14.22Z"/>
      <path class="cls-10" d="M3602.84,458.65c-.32,6.49.03,17.19-13.56,19.28-12.36,1.9-20.1-4.67-22.49-20.22-5.76-37.5-6.05-75.47-9.04-113.2-.82-10.37,4.27-17.97,14.65-19.29,11.73-1.49,18.68,5.31,21.19,16.6,5.13,23.05,2.13,46.76,5.74,70.01,2.21,14.23,2.25,28.79,3.51,46.82Z"/>
      <path class="cls-11" d="M3611.84,560.12c-.19,10.38-4.44,16.21-14.17,16.59-10.28.4-15.5-4.83-16-15.17-.5-10.38,4.61-16.59,14.5-16.74,9.94-.15,14.63,6.83,15.66,15.32Z"/>
      <path class="cls-1" d="M957.89,769.05c-4.66-.37-10.64-4-10.06-12.54.52-7.61,5.72-13.51,13.61-13.18,8.46.35,13.43,5.69,12.79,15.06-.57,8.38-5.39,11.16-16.34,10.66Z"/>
      <path class="cls-5" d="M1807.17,739.13c-.79,3.89-.9,8.09-2.49,11.61-4.03,8.9-9.25,18.37-20.96,14.7-12.28-3.85-7.78-14.63-5.92-22.96,2.18-9.79,6.19-19.13,13.71-26.23,5.71-5.4,10.72-6.48,11.55,3.75.53,6.49,4.91,12.22,4.11,19.13Z"/>
      <path class="cls-5" d="M2458.97,606.92c13.1.33,26.65,14.49,26.36,27.55-.27,12.04-14.1,23.5-28.15,23.34-11.78-.13-17.56-8.31-17.23-24.38.36-18.01,6.68-26.82,19.03-26.51Z"/>
      <path class="cls-5" d="M2601.86,624.79c-7.71-2.14-20.71.23-22.48-14.11-1.47-11.91,15.36-27.07,28.3-26.98,10.75.07,21.74,11.64,21.7,22.85-.04,12.11-9.18,18.65-27.53,18.24Z"/>
      <path class="cls-2" d="M1616.74,294.75c-2,8.32-3.71,17.77-11.55,24.32-.9.75-3.8.86-3.96.47-3.7-8.49,1.6-16.28,2.18-24.48.1-1.45.68-2.96,1.37-4.26,1.89-3.58,1.31-10.66,7.45-8.87,4.31,1.26,4.48,7.26,4.51,12.82Z"/>
      <path class="cls-5" d="M718.48,542.56c.11,11.68-10.55,20.03-29.98,14.54-6.66-1.88-13.11-4.68-19.44-7.52-9.6-4.31-14.06-11.22-13.15-22.5,1.04-12.88-.65-25.97.25-38.88,1.51-21.74,10.64-25.74,28.7-14.08,21.95,14.17,32.21,34.56,33.62,68.44Z"/>
      <path class="cls-6" d="M797.09,464.82c1.34-13.99,6.53-26.09,19.14-33.55,3.97-2.35,9.15-5.69,13.83-1.76,4.7,3.95,2.28,9.04.51,13.78-4.33,11.59-11.59,20.75-22.02,27.45-2.89,1.86-5.51,5.03-9.22,2.48-2.78-1.91-1.96-5.37-2.25-8.41Z"/>
      <path class="cls-5" d="M277.17,1000.9c-.23,3.26.03,5.88-.67,8.2-2.13,7.01-2.9,15.94-11.81,17.37-8.82,1.41-14.82-4.94-19.36-11.68-8.97-13.32-6.26-46.12,4.05-58.14,3.83-4.47,7.63-5.58,10.69-.47,8.42,14.07,17.01,28.22,17.11,44.73Z"/>
      <path class="cls-2" d="M393.67,936.73c1.31,15.55,1.87,27.11-6.43,38.39-7.59-13.89-5.12-24.97,6.43-38.39Z"/>
      <path class="cls-6" d="M1361.82,342.59c-.96,2.65-1.95,6.53-3.72,10.03-3.31,6.55-5.94,14.48-14.47,15.46-3.65.42-3.25-4.57-2.73-7.23,2.05-10.54,5.84-20.47,16.3-25.25,4.17-1.91,4.01,2.87,4.62,6.98Z"/>
    </g>
  </g>
</svg>